<?xml version="1.0" encoding="UTF-8"?>
<svg version="1.1" xmlns="http://www.w3.org/2000/svg" width="225" height="225">
<path d="M0 0 C1.05900513 0.00012085 1.05900513 0.00012085 2.1394043 0.00024414 C4.24419533 -0.00190531 6.34842951 -0.0199447 8.453125 -0.0390625 C31.13515764 -0.1386696 31.13515764 -0.1386696 38.27148438 6.65039062 C41.79706421 11.13438051 41.01024768 17.81859798 40.47851562 23.18554688 C39.14535539 26.50265174 36.99590481 28.66815769 34.47851562 31.18554688 C35.40664062 31.72179687 36.33476563 32.25804687 37.29101562 32.81054688 C41.98213949 36.30589407 43.43101864 39.91874955 44.35351562 45.56054688 C44.85615215 51.78067388 43.08950364 56.22623713 39.16601562 60.99804688 C32.14934934 66.70928687 25.66411817 67.34095795 16.89648438 67.28320312 C15.67521599 67.2810807 15.67521599 67.2810807 14.42927551 67.27891541 C11.84148407 67.27334004 9.25378071 67.26079212 6.66601562 67.24804688 C4.90625125 67.24302869 3.14648552 67.23846634 1.38671875 67.234375 C-2.91604931 67.22337868 -7.21875193 67.20613108 -11.52148438 67.18554688 C-11.54461073 58.59748967 -11.56240095 50.00944539 -11.57329655 41.42136478 C-11.57852474 37.43397487 -11.58562122 33.4466062 -11.59692383 29.45922852 C-11.60775499 25.61429573 -11.61376169 21.76938343 -11.61636162 17.92443657 C-11.61821545 16.45435704 -11.62183528 14.98427869 -11.62721443 13.51420784 C-11.63442793 11.4620022 -11.63547519 9.4098822 -11.63500977 7.35766602 C-11.63723038 6.18740372 -11.63945099 5.01714142 -11.64173889 3.81141663 C-11.36928546 -2.13785863 -4.66948083 0.01690132 0 0 Z M3.47851562 13.18554688 C3.40579821 15.53868242 3.39480695 17.89388356 3.41601562 20.24804688 C3.42503906 21.53839844 3.4340625 22.82875 3.44335938 24.15820312 C3.45496094 25.15722656 3.4665625 26.15625 3.47851562 27.18554688 C6.37592184 27.32093969 9.26697184 27.41981516 12.16601562 27.49804688 C12.98263672 27.53994141 13.79925781 27.58183594 14.640625 27.625 C19.0522725 27.71430461 20.90121257 27.61723718 24.54492188 24.89257812 C26.79236739 22.24588135 26.79236739 22.24588135 26.72851562 18.56054688 C25.77331175 15.01852713 25.77331175 15.01852713 22.79101562 13.24804688 C18.45699034 11.76702775 6.87171225 9.79235025 3.47851562 13.18554688 Z M3.47851562 38.18554688 C3.47851562 43.79554687 3.47851562 49.40554687 3.47851562 55.18554688 C6.5415514 55.2667068 9.60242377 55.32612096 12.66601562 55.37304688 C13.53033203 55.39818359 14.39464844 55.42332031 15.28515625 55.44921875 C20.20549772 55.5057744 23.46544625 55.37830948 27.47851562 52.18554688 C29.04792761 50.61613489 28.72350032 49.04419694 28.79101562 46.87304688 C28.82839844 46.09316406 28.86578125 45.31328125 28.90429688 44.50976562 C28.59960449 42.09064922 28.59960449 42.09064922 27.13085938 39.90820312 C22.90217969 37.16174106 18.6475471 37.76524752 13.72851562 37.93554688 C12.74496094 37.95359375 11.76140625 37.97164062 10.74804688 37.99023438 C8.32445221 38.03729447 5.90135937 38.10903602 3.47851562 38.18554688 Z " fill="#100E02" transform="translate(30.521484375,76.814453125)"/>
<path d="M0 0 C40.94736842 0 40.94736842 0 47.625 4.375 C52.12357685 9.34711125 52.53343582 13.33954628 52.46875 19.9375 C51.74009512 24.69804521 49.32015623 27.6403181 46 31 C46.928125 31.53625 47.85625 32.0725 48.8125 32.625 C53.28901732 35.96044428 54.52638538 39.03267774 55.8125 44.375 C56.12928373 50.49948549 55.13084308 54.97417857 51.25 59.8125 C47.19554491 64.14317101 42.81434854 66.11180042 37 67 C34.13067241 67.08217265 31.28641255 67.11663278 28.41796875 67.09765625 C27.69565063 67.09664917 26.97333252 67.09564209 26.22912598 67.09460449 C23.54856768 67.08939952 20.86803213 67.07543837 18.1875 67.0625 C12.185625 67.041875 6.18375 67.02125 0 67 C0 44.89 0 22.78 0 0 Z M15 12 C15 16.95 15 21.9 15 27 C17.89740622 27.13539281 20.78845621 27.23426829 23.6875 27.3125 C24.50412109 27.35439453 25.32074219 27.39628906 26.16210938 27.43945312 C30.59955982 27.52928006 32.42458778 27.43392937 36.08203125 24.67578125 C38.3034293 22.12537779 38.3034293 22.12537779 38 18.875 C36.99882925 15.9966341 36.46241238 14.73280871 34 13 C30.17590615 11.65465614 26.24725759 11.88876348 22.25 11.9375 C19.8575 11.958125 17.465 11.97875 15 12 Z M15 38 C15 43.61 15 49.22 15 55 C18.06303578 55.08115993 21.12390815 55.14057409 24.1875 55.1875 C25.05181641 55.21263672 25.91613281 55.23777344 26.80664062 55.26367188 C31.72698209 55.32022752 34.98693063 55.19276261 39 52 C40.56941198 50.43058802 40.2449847 48.85865006 40.3125 46.6875 C40.34988281 45.90761719 40.38726562 45.12773438 40.42578125 44.32421875 C40.12108886 41.90510235 40.12108886 41.90510235 38.65234375 39.72265625 C34.42366406 36.97619418 30.16903147 37.57970064 25.25 37.75 C24.26644531 37.76804688 23.28289062 37.78609375 22.26953125 37.8046875 C19.84593659 37.85174759 17.42284375 37.92348914 15 38 Z " fill="#0E0C03" transform="translate(156,77)"/>
<path d="M0 0 C8.16217266 6.60127909 11.83452803 16.53222656 13.09375 26.7109375 C13.53167478 36.81970126 10.52755356 46.83390356 3.8125 54.4375 C-4.07004578 61.93237959 -11.27253098 63.85971352 -22.12109375 63.80102539 C-31.13438473 63.5671704 -37.89074551 60.6605012 -44.4296875 54.4921875 C-49.16597342 48.95599552 -51.71612936 42.66518312 -52.1875 35.4375 C-50.7757217 34.90355821 -49.35779756 34.38584896 -47.9375 33.875 C-47.14859375 33.58496094 -46.3596875 33.29492188 -45.546875 32.99609375 C-42.85133246 32.35791067 -41.66752337 32.17944241 -39.1875 33.4375 C-37.73046875 36.01953125 -37.73046875 36.01953125 -36.375 39.25 C-33.67561503 44.94644648 -32.12510604 47.28767712 -26.1875 49.4375 C-21.05624059 50.88292519 -16.9185028 50.63643539 -12.01171875 48.515625 C-6.92649598 45.51022568 -4.73975587 41.00655834 -3.1875 35.4375 C-2.33062165 27.49642971 -2.65110213 20.21282972 -7.1875 13.4375 C-11.97770675 8.76412756 -16.14205297 8.08615771 -22.609375 8.15234375 C-26.69746901 8.60451172 -28.90040525 9.97217894 -32.1875 12.4375 C-33.6537686 14.52201836 -33.6537686 14.52201836 -34.1875 16.4375 C-32.5375 17.0975 -30.8875 17.7575 -29.1875 18.4375 C-31.81736812 21.06736812 -33.94978325 21.258772 -37.5625 22.0625 C-39.27566406 22.45308594 -39.27566406 22.45308594 -41.0234375 22.8515625 C-44.1875 23.4375 -44.1875 23.4375 -48.1875 23.4375 C-50.1675 17.8275 -52.1475 12.2175 -54.1875 6.4375 C-52.2075 7.0975 -50.2275 7.7575 -48.1875 8.4375 C-47.630625 7.83421875 -47.07375 7.2309375 -46.5 6.609375 C-33.89909769 -6.58751593 -15.94332094 -10.59885554 0 0 Z " fill="#0F0D04" transform="translate(135.1875,81.5625)"/>
<path d="M0 0 C0.66 0 1.32 0 2 0 C1.67 1.32 1.34 2.64 1 4 C3.475 4.99 3.475 4.99 6 6 C3.23776722 8.76223278 0.79293383 8.57856291 -3 9 C-3 8.01 -3 7.02 -3 6 C-2.34 5.67 -1.68 5.34 -1 5 C-0.34444881 2.47266765 -0.34444881 2.47266765 0 0 Z " fill="#473E11" transform="translate(100,94)"/>
<path d="M0 0 C1.32 0.33 2.64 0.66 4 1 C3.67 1.99 3.34 2.98 3 4 C2.96079185 5.99961564 2.95556653 8.00049364 3 10 C0.70366176 6.55549263 0.45983515 4.06187717 0 0 Z " fill="#3E370F" transform="translate(83,117)"/>
</svg>
