<?xml version="1.0" encoding="UTF-8"?>
<svg version="1.1" xmlns="http://www.w3.org/2000/svg" width="354" height="142">
<path d="M0 0 C0.91644287 0.00523682 1.83288574 0.01047363 2.77709961 0.01586914 C4.26113281 0.02070313 4.26113281 0.02070313 5.77514648 0.02563477 C6.81606445 0.03401367 7.85698242 0.04239258 8.92944336 0.05102539 C10.49662109 0.05779297 10.49662109 0.05779297 12.09545898 0.06469727 C14.68600996 0.07652627 17.27644895 0.0930085 19.86694336 0.11352539 C19.96494736 0.8039946 20.06295135 1.49446381 20.16392517 2.20585632 C21.08932032 8.7237535 22.01607454 15.24145583 22.94434261 21.75894451 C23.42148643 25.10937309 23.8981108 28.45987383 24.37353516 31.81054688 C24.92079648 35.66563547 25.46986501 39.52046298 26.01928711 43.37524414 C26.18911606 44.57436935 26.35894501 45.77349457 26.53392029 47.00895691 C26.77405602 48.69013359 26.77405602 48.69013359 27.01904297 50.40527344 C27.1589415 51.38900436 27.29884003 52.37273529 27.44297791 53.38627625 C27.84628345 55.98062605 28.3309521 58.54363988 28.86694336 61.11352539 C29.24802246 60.42129883 29.62910156 59.72907227 30.02172852 59.01586914 C37.59647903 45.27404508 45.25003223 31.59462743 53.20922852 18.07055664 C56.18208117 13.01839473 59.09708646 7.9465183 61.8996582 2.79760742 C62.86694336 1.11352539 62.86694336 1.11352539 63.86694336 0.11352539 C66.51432425 0.01841273 69.13553336 -0.01203096 71.78320312 0 C72.61240265 -0.00014603 73.44160217 -0.00029205 74.29592896 -0.0004425 C77.05009534 0.00025688 79.80419497 0.00805046 82.55834961 0.01586914 C84.46264102 0.01773323 86.36693291 0.01915717 88.27122498 0.02015686 C93.29362299 0.02398276 98.31599228 0.03381366 103.33837891 0.04486084 C108.45922456 0.05507341 113.58007484 0.05965415 118.70092773 0.06469727 C128.75627893 0.07543586 138.81160876 0.09251315 148.86694336 0.11352539 C147.87694336 5.06352539 146.88694336 10.01352539 145.86694336 15.11352539 C137.61694336 15.11352539 129.36694336 15.11352539 120.86694336 15.11352539 C120.53694336 18.08352539 120.20694336 21.05352539 119.86694336 24.11352539 C119.46807997 26.29707565 119.03426019 28.47462997 118.56005859 30.64306641 C118.29986435 31.84363174 118.0396701 33.04419708 117.77159119 34.28114319 C117.49239334 35.54711838 117.2131955 36.81309357 116.92553711 38.11743164 C116.63510417 39.44969641 116.34507709 40.78204972 116.05543518 42.11448669 C115.29831324 45.59229093 114.53574554 49.06887829 113.77197266 52.54522705 C112.99104229 56.10437325 112.21535772 59.66466211 111.43920898 63.22485352 C109.92020405 70.18886201 108.39494879 77.1514853 106.86694336 84.11352539 C101.58694336 84.11352539 96.30694336 84.11352539 90.86694336 84.11352539 C91.54961325 76.56299559 92.9729569 69.28107815 94.55444336 61.87133789 C94.81700928 60.62601288 95.0795752 59.38068787 95.35009766 58.09762573 C95.90285054 55.480078 96.45717425 52.86292945 97.0144043 50.24633789 C97.72807014 46.89485093 98.43636538 43.54225773 99.14280701 40.18924141 C99.81960212 36.97866551 100.49952647 33.76875391 101.17944336 30.55883789 C101.43363037 29.35574982 101.68781738 28.15266174 101.94970703 26.91311646 C102.18665283 25.80120941 102.42359863 24.68930237 102.66772461 23.54370117 C102.8756665 22.56490997 103.0836084 21.58611877 103.29785156 20.57766724 C103.86694336 18.11352539 103.86694336 18.11352539 104.86694336 15.11352539 C97.27694336 15.11352539 89.68694336 15.11352539 81.86694336 15.11352539 C81.53694336 18.41352539 81.20694336 21.71352539 80.86694336 25.11352539 C80.50852374 27.19714696 80.11371075 29.27514745 79.66772461 31.34179688 C79.43077881 32.4525206 79.19383301 33.56324432 78.94970703 34.70762634 C78.69552002 35.87153397 78.44133301 37.03544159 78.17944336 38.23461914 C77.91687744 39.45633316 77.65431152 40.67804718 77.38378906 41.93678284 C76.69113154 45.15366502 75.99358301 48.36943489 75.29382324 51.58477783 C74.72257679 54.21599094 74.15673971 56.84835415 73.59107971 59.48077297 C72.91441197 62.62836632 72.23448313 65.77525285 71.55444336 68.92211914 C71.30025635 70.10019638 71.04606934 71.27827362 70.78417969 72.49205017 C70.54723389 73.58070877 70.31028809 74.66936737 70.06616211 75.79101562 C69.85822021 76.74902573 69.65027832 77.70703583 69.43603516 78.69407654 C68.86694336 81.11352539 68.86694336 81.11352539 67.86694336 84.11352539 C62.58694336 84.11352539 57.30694336 84.11352539 51.86694336 84.11352539 C53.61645906 71.39328968 56.43029207 58.94723826 59.20703125 46.41918945 C59.83159369 43.59438345 60.44923895 40.7681329 61.06616211 37.94165039 C61.2619133 37.06889465 61.45766449 36.19613892 61.65934753 35.29693604 C62.10582616 33.24487024 62.49298148 31.18003688 62.86694336 29.11352539 C62.53694336 28.78352539 62.20694336 28.45352539 61.86694336 28.11352539 C61.51092041 28.7806958 61.15489746 29.44786621 60.78808594 30.13525391 C52.35581153 45.91694387 43.74711974 61.57813196 34.86694336 77.11352539 C34.45347656 77.83749512 34.04000977 78.56146484 33.61401367 79.30737305 C32.69875801 80.90967207 31.78293013 82.51164421 30.86694336 84.11352539 C26.24694336 84.11352539 21.62694336 84.11352539 16.86694336 84.11352539 C16.19093182 79.26130769 15.51550642 74.40900885 14.84057617 69.55664062 C14.61188802 67.91306464 14.38305195 66.26950923 14.15405273 64.62597656 C13.49280273 59.87976768 12.83448129 55.13316936 12.18048096 50.38595581 C11.97410072 48.89017116 11.76688814 47.39450108 11.55877686 45.8989563 C11.27342373 43.84583501 10.9915874 41.79226083 10.71069336 39.73852539 C10.55020508 38.57450195 10.3897168 37.41047852 10.22436523 36.21118164 C9.79190444 32.4631881 9.71323425 28.8793985 9.86694336 25.11352539 C9.20694336 25.11352539 8.54694336 25.11352539 7.86694336 25.11352539 C7.82085937 25.70855362 7.77477539 26.30358185 7.72729492 26.91664124 C7.15831519 33.4254137 6.03576291 39.67461906 4.61694336 46.04711914 C4.39876953 47.04687271 4.1805957 48.04662628 3.95581055 49.07667542 C3.49782828 51.17050897 3.03718245 53.26376158 2.57397461 55.35644531 C1.86379462 58.56525233 1.16154627 61.77571644 0.46069336 64.98657227 C0.01323134 67.02768761 -0.4346696 69.0687068 -0.88305664 71.10961914 C-1.09349609 72.06895859 -1.30393555 73.02829803 -1.52075195 74.01670837 C-1.8161084 75.34938499 -1.8161084 75.34938499 -2.11743164 76.70898438 C-2.28984375 77.48934555 -2.46225586 78.26970673 -2.63989258 79.07371521 C-3.13305664 81.11352539 -3.13305664 81.11352539 -4.13305664 84.11352539 C-9.41305664 84.11352539 -14.69305664 84.11352539 -20.13305664 84.11352539 C-18.60963351 74.49013493 -16.70767028 64.97420624 -14.69165039 55.44555664 C-14.36048781 53.87328938 -14.02944028 52.30099788 -13.69850159 50.72868347 C-13.01020277 47.46165824 -12.31996663 44.19504973 -11.62841797 40.92871094 C-10.74083619 36.73527704 -9.85908756 32.5406398 -8.97883511 28.34566212 C-8.29946838 25.11190085 -7.6166422 21.87887759 -6.93278694 18.64606285 C-6.60586155 17.09808802 -6.28012707 15.54986119 -5.95559502 14.00138283 C-5.5045821 11.85154413 -5.04882981 9.70276493 -4.59179688 7.55419922 C-4.33357651 6.33130692 -4.07535614 5.10841461 -3.80931091 3.84846497 C-2.89582987 0.15412165 -2.89582987 0.15412165 0 0 Z " fill="#0F0D01" transform="translate(156.133056640625,28.886474609375)"/>
<path d="M0 0 C7.57016366 8.16074381 9.57279736 17.2323344 9.4609375 28.015625 C8.26771603 44.5843574 -1.36513156 56.68858229 -13.20654297 67.43847656 C-23.54291412 76.28206076 -35.74713857 78.56471562 -49.10546875 77.56640625 C-59.00403988 76.14874017 -67.18409868 72.49324545 -73.8125 64.8125 C-80.41324647 54.01648517 -82.42152831 44.25853999 -79.6875 31.875 C-75.55861111 17.04509173 -64.01693386 2.40572281 -50.6484375 -5.4609375 C-35.07079373 -13.44802031 -13.18039646 -12.01825397 0 0 Z M-57.625 3.125 C-64.76714031 10.74658954 -67.20176195 20.25228028 -67.125 30.5 C-67.11936035 31.29092041 -67.1137207 32.08184082 -67.10791016 32.89672852 C-66.84755869 45.56759606 -63.20812364 57.25390229 -54.5 66.75 C-48.66302273 72.07496172 -42.27039447 74.54744719 -34.36328125 74.203125 C-25.15348055 72.79274205 -17.07210806 67.96478514 -11.19921875 60.8125 C-4.04086143 50.48833395 -3.87686876 38.92345009 -4.8125 26.8125 C-6.79513467 16.26359053 -11.75926254 3.72315023 -20.8828125 -2.62890625 C-33.72103443 -10.26656031 -47.03663696 -6.74245321 -57.625 3.125 Z " fill="#141201" transform="translate(129.8125,37.1875)"/>
<path d="M0 0 C10.23017646 9.83670813 14.02818242 23.29971788 14.375 37.1875 C14.08015946 48.25630537 11.00056868 55.78814369 3.3359375 63.72265625 C-1.89759346 68.58577748 -7.33061632 71.07935531 -14.5 71.375 C-21.55082961 71.10755474 -26.75126251 68.6554736 -32 64 C-41.83080343 51.38959311 -44.93894037 37.73594512 -44 22 C-42.63052349 13.6322664 -38.66012823 6.66012823 -32.6875 0.6875 C-21.84816766 -6.1185924 -10.61745989 -8.72991147 0 0 Z M-31.6875 13.75 C-37.46637215 19.1889385 -41.21883116 23.51462541 -41.5625 31.6875 C-41.15028859 40.7447008 -38.66108323 52.35590932 -32 59 C-26.91811761 62.05517929 -21.45942463 62.54515969 -15.671875 61.69140625 C-4.60469694 58.82753123 3.40230757 52.26958058 10.0625 43.1875 C13.13747763 32.73257607 10.45112519 22.04377917 5.76171875 12.47265625 C3.58622224 8.74804458 2.06817424 6.67558901 -2 5 C-13.15457599 2.32290176 -23.23831977 6.63930377 -31.6875 13.75 Z " fill="#1A1601" transform="translate(109,38)"/>
<path d="M0 0 C0.99 0 1.98 0 3 0 C3.68344995 8.4747794 1.66414178 14.33978084 -3.609375 21.046875 C-8.36504598 26.15158605 -14.87302233 30.47415614 -21.98046875 31.203125 C-29.93721283 31.37211779 -36.10965231 29.55375639 -42 24 C-45 20.48275862 -45 20.48275862 -45 18 C-42.41731043 18.62576179 -39.91835943 19.33568156 -37.375 20.125 C-28.66783163 22.21343522 -21.58790756 19.96682104 -13.83984375 15.80859375 C-7.56581563 11.81289221 -2.77484454 6.93711135 0 0 Z " fill="#181501" transform="translate(119,78)"/>
<path d="M0 0 C2.3359375 0.234375 2.3359375 0.234375 5 1 C13.08384087 11.00856489 13.49292792 25.82285477 13 38 C10.64760441 36.19046493 10.04321848 35.31208292 9.62890625 32.3203125 C9.60699219 31.26585938 9.58507812 30.21140625 9.5625 29.125 C8.95444582 18.41847744 5.70434637 9.0474674 0 0 Z " fill="#504501" transform="translate(110,44)"/>
<path d="M0 0 C0.495 1.485 0.495 1.485 1 3 C0.38253906 3.08636719 -0.23492187 3.17273438 -0.87109375 3.26171875 C-10.27093726 4.82120573 -16.90909569 8.67984616 -24 15 C-25.24713083 16.08663509 -26.49719742 17.16990889 -27.75 18.25 C-28.32234375 18.75015625 -28.8946875 19.2503125 -29.484375 19.765625 C-31 21 -31 21 -33 22 C-29.31568437 13.05237633 -19.58344719 5.83034154 -11 2 C-9.6696875 1.3503125 -9.6696875 1.3503125 -8.3125 0.6875 C-5.47024783 -0.15749389 -2.94817987 -0.13712465 0 0 Z " fill="#494001" transform="translate(94,28)"/>
<path d="M0 0 C0.66 0 1.32 0 2 0 C2.32613281 1.00160156 2.65226562 2.00320312 2.98828125 3.03515625 C3.42952315 4.3776582 3.87093871 5.72010307 4.3125 7.0625 C4.52583984 7.71927734 4.73917969 8.37605469 4.95898438 9.05273438 C6.4210244 13.48249744 8.10888054 17.73527606 10 22 C8.16796875 21.80859375 8.16796875 21.80859375 6 21 C1.70239041 14.61729681 0.18094284 7.58314989 0 0 Z " fill="#433B01" transform="translate(66,74)"/>
<path d="M0 0 C2.32421875 0.1953125 2.32421875 0.1953125 5 1 C6.58203125 3.1796875 6.58203125 3.1796875 7.8125 5.875 C8.44091797 7.20144531 8.44091797 7.20144531 9.08203125 8.5546875 C10 11 10 11 10 14 C9.01 14 8.02 14 7 14 C4.66666667 9.33333333 2.33333333 4.66666667 0 0 Z " fill="#4D4301" transform="translate(110,44)"/>
<path d="M0 0 C0.99 0.33 1.98 0.66 3 1 C-0.51822249 5.43601966 -4.75390186 6.52033129 -10 8 C-10 7.34 -10 6.68 -10 6 C-10.66 5.67 -11.32 5.34 -12 5 C-11.30132812 4.72285156 -10.60265625 4.44570312 -9.8828125 4.16015625 C-8.97273438 3.79792969 -8.06265625 3.43570313 -7.125 3.0625 C-6.22007813 2.70285156 -5.31515625 2.34320313 -4.3828125 1.97265625 C-2.03862333 1.05098738 -2.03862333 1.05098738 0 0 Z " fill="#494001" transform="translate(110,105)"/>
<path d="M0 0 C0.66 0 1.32 0 2 0 C3.4783226 2.95664519 3.06032783 5.74229737 3 9 C1.5 7.875 1.5 7.875 0 6 C-0.1875 2.8125 -0.1875 2.8125 0 0 Z " fill="#2F2901" transform="translate(66,74)"/>
<path d="M0 0 C0.99 0.33 1.98 0.66 3 1 C3.33 2.65 3.66 4.3 4 6 C3.01 6 2.02 6 1 6 C0.67 4.02 0.34 2.04 0 0 Z " fill="#3C3401" transform="translate(116,52)"/>
<path d="M0 0 C0.33 0 0.66 0 1 0 C1 2.97 1 5.94 1 9 C0.67 9 0.34 9 0 9 C0 6.03 0 3.06 0 0 Z " fill="#FFF6C8" transform="translate(350,65)"/>
<path d="M0 0 C0.33 0 0.66 0 1 0 C1 2.97 1 5.94 1 9 C0.67 9 0.34 9 0 9 C0 6.03 0 3.06 0 0 Z " fill="#FFF6C8" transform="translate(3,65)"/>
<path d="M0 0 C2.64 0 5.28 0 8 0 C8 0.33 8 0.66 8 1 C5.36 1 2.72 1 0 1 C0 0.67 0 0.34 0 0 Z " fill="#FEEC7E" transform="translate(284,2)"/>
<path d="M0 0 C2.64 0 5.28 0 8 0 C8 0.33 8 0.66 8 1 C5.36 1 2.72 1 0 1 C0 0.67 0 0.34 0 0 Z " fill="#FEE96C" transform="translate(63,2)"/>
<path d="M0 0 C2.31 0 4.62 0 7 0 C7 0.33 7 0.66 7 1 C4.69 1 2.38 1 0 1 C0 0.67 0 0.34 0 0 Z " fill="#FEEC80" transform="translate(284,139)"/>
<path d="M0 0 C2.31 0 4.62 0 7 0 C7 0.33 7 0.66 7 1 C4.69 1 2.38 1 0 1 C0 0.67 0 0.34 0 0 Z " fill="#FEEC80" transform="translate(63,139)"/>
<path d="M0 0 C0.33 0 0.66 0 1 0 C1 1.65 1 3.3 1 5 C0.67 5 0.34 5 0 5 C0 3.35 0 1.7 0 0 Z " fill="#FEED84" transform="translate(4,57)"/>
<path d="M0 0 C4 1 4 1 4 1 Z " fill="#FEED8A" transform="translate(292,138)"/>
<path d="M0 0 C4 1 4 1 4 1 Z " fill="#FEED8A" transform="translate(58,138)"/>
<path d="M0 0 C1 4 1 4 1 4 Z " fill="#FEEC80" transform="translate(348,83)"/>
<path d="M0 0 C1 4 1 4 1 4 Z " fill="#FEEC80" transform="translate(5,83)"/>
<path d="M0 0 C1 4 1 4 1 4 Z " fill="#FEED8E" transform="translate(349,78)"/>
<path d="M0 0 C1 4 1 4 1 4 Z " fill="#FEED8B" transform="translate(4,78)"/>
<path d="M0 0 C1 4 1 4 1 4 Z " fill="#FEEE8F" transform="translate(349,57)"/>
<path d="M0 0 C4 1 4 1 4 1 Z " fill="#FEEC81" transform="translate(293,3)"/>
<path d="M0 0 C3 1 3 1 3 1 Z " fill="#FEEE90" transform="translate(300,136)"/>
<path d="M0 0 C3 1 3 1 3 1 Z " fill="#FEEE90" transform="translate(51,136)"/>
<path d="" fill="#FEE966" transform="translate(0,0)"/>
<path d="" fill="#FEE864" transform="translate(0,0)"/>
<path d="" fill="#FEE866" transform="translate(0,0)"/>
<path d="" fill="#FEEB79" transform="translate(0,0)"/>
<path d="" fill="#FEEA71" transform="translate(0,0)"/>
<path d="" fill="#FEEC87" transform="translate(0,0)"/>
<path d="M0 0 C3 1 3 1 3 1 Z " fill="#FEEF99" transform="translate(298,4)"/>
<path d="M0 0 C3 1 3 1 3 1 Z " fill="#FEEB79" transform="translate(58,3)"/>
<path d="M0 0 C2 1 2 1 2 1 Z " fill="#FEED8B" transform="translate(297,137)"/>
<path d="M0 0 C2 1 2 1 2 1 Z " fill="#FEED8B" transform="translate(55,137)"/>
<path d="M0 0 C2 1 2 1 2 1 Z " fill="#FEE863" transform="translate(303,135)"/>
<path d="M0 0 C2 1 2 1 2 1 Z " fill="#FEE863" transform="translate(49,135)"/>
<path d="M0 0 C2 1 2 1 2 1 Z " fill="#FEEE96" transform="translate(306,134)"/>
<path d="M0 0 C2 1 2 1 2 1 Z " fill="#FEEE96" transform="translate(46,134)"/>
<path d="M0 0 C2 1 2 1 2 1 Z " fill="#FEEC81" transform="translate(308,133)"/>
<path d="M0 0 C2 1 2 1 2 1 Z " fill="#FEEC81" transform="translate(44,133)"/>
<path d="M0 0 C2 1 2 1 2 1 Z " fill="#FEEA6D" transform="translate(310,132)"/>
<path d="M0 0 C2 1 2 1 2 1 Z " fill="#FEEA6D" transform="translate(42,132)"/>
<path d="M0 0 C2 1 2 1 2 1 Z " fill="#FEEB74" transform="translate(312,131)"/>
<path d="M0 0 C2 1 2 1 2 1 Z " fill="#FEEB74" transform="translate(40,131)"/>
<path d="M0 0 C2 1 2 1 2 1 Z " fill="#FEEC7A" transform="translate(314,130)"/>
<path d="M0 0 C2 1 2 1 2 1 Z " fill="#FEEC76" transform="translate(38,130)"/>
<path d="" fill="#FEEA69" transform="translate(0,0)"/>
<path d="" fill="#FEEA69" transform="translate(0,0)"/>
<path d="" fill="#FEE863" transform="translate(0,0)"/>
<path d="" fill="#FEE760" transform="translate(0,0)"/>
<path d="" fill="#FEEE8E" transform="translate(0,0)"/>
<path d="" fill="#FEED86" transform="translate(0,0)"/>
<path d="" fill="#FEEB77" transform="translate(0,0)"/>
<path d="" fill="#FEE970" transform="translate(0,0)"/>
<path d="" fill="#FEED86" transform="translate(0,0)"/>
<path d="" fill="#FEE96A" transform="translate(0,0)"/>
<path d="" fill="#FEEF94" transform="translate(0,0)"/>
<path d="" fill="#FEEC81" transform="translate(0,0)"/>
<path d="" fill="#FEEC7A" transform="translate(0,0)"/>
<path d="" fill="#FEEE8D" transform="translate(0,0)"/>
<path d="" fill="#FEEC7C" transform="translate(0,0)"/>
<path d="M0 0 C2 1 2 1 2 1 Z " fill="#FEED7C" transform="translate(323,16)"/>
<path d="M0 0 C2 1 2 1 2 1 Z " fill="#FEEC78" transform="translate(31,15)"/>
<path d="M0 0 C2 1 2 1 2 1 Z " fill="#FEEC7A" transform="translate(317,12)"/>
<path d="M0 0 C2 1 2 1 2 1 Z " fill="#FEEE8D" transform="translate(39,10)"/>
<path d="M0 0 C2 1 2 1 2 1 Z " fill="#FEEC81" transform="translate(41,9)"/>
<path d="M0 0 C2 1 2 1 2 1 Z " fill="#FEEF94" transform="translate(43,8)"/>
<path d="M0 0 C2 1 2 1 2 1 Z " fill="#FEEC81" transform="translate(307,7)"/>
<path d="M0 0 C2 1 2 1 2 1 Z " fill="#FEE75A" transform="translate(304,6)"/>
<path d="M0 0 C2 1 2 1 2 1 Z " fill="#FEEE8E" transform="translate(48,6)"/>
<path d="M0 0 C2 1 2 1 2 1 Z " fill="#FEF1A7" transform="translate(302,5)"/>
<path d="M0 0 C2 1 2 1 2 1 Z " fill="#FEEC87" transform="translate(51,5)"/>
<path d="M0 0 C2 1 2 1 2 1 Z " fill="#FEEE94" transform="translate(54,4)"/>
<path d="" fill="#FEEA78" transform="translate(0,0)"/>
<path d="" fill="#FEEA78" transform="translate(0,0)"/>
<path d="" fill="#FFF3B0" transform="translate(0,0)"/>
<path d="" fill="#FFF3B0" transform="translate(0,0)"/>
<path d="" fill="#FEE65F" transform="translate(0,0)"/>
<path d="" fill="#FEE75F" transform="translate(0,0)"/>
<path d="" fill="#FFF7C9" transform="translate(0,0)"/>
<path d="" fill="#FFF5BE" transform="translate(0,0)"/>
<path d="" fill="#FEED8A" transform="translate(0,0)"/>
<path d="" fill="#FEED8A" transform="translate(0,0)"/>
<path d="" fill="#FEE64F" transform="translate(0,0)"/>
<path d="" fill="#FEE64F" transform="translate(0,0)"/>
<path d="" fill="#FFF7CE" transform="translate(0,0)"/>
<path d="" fill="#FFF7CE" transform="translate(0,0)"/>
<path d="" fill="#FFF5BE" transform="translate(0,0)"/>
<path d="" fill="#FFF5BE" transform="translate(0,0)"/>
<path d="" fill="#FFF3B0" transform="translate(0,0)"/>
<path d="" fill="#FFF3B0" transform="translate(0,0)"/>
<path d="" fill="#FFF3B0" transform="translate(0,0)"/>
<path d="" fill="#FFF2AA" transform="translate(0,0)"/>
<path d="" fill="#FFF3B0" transform="translate(0,0)"/>
<path d="" fill="#FFF2AA" transform="translate(0,0)"/>
<path d="" fill="#FFF5BE" transform="translate(0,0)"/>
<path d="" fill="#FFF3B0" transform="translate(0,0)"/>
<path d="" fill="#FFF7C9" transform="translate(0,0)"/>
<path d="" fill="#FFF7C9" transform="translate(0,0)"/>
<path d="" fill="#FFF9D6" transform="translate(0,0)"/>
<path d="" fill="#FFF9D6" transform="translate(0,0)"/>
<path d="" fill="#FEE445" transform="translate(0,0)"/>
<path d="" fill="#FEE445" transform="translate(0,0)"/>
<path d="" fill="#FEEA78" transform="translate(0,0)"/>
<path d="" fill="#FEEA78" transform="translate(0,0)"/>
<path d="" fill="#FFF3B0" transform="translate(0,0)"/>
<path d="" fill="#FFF3B0" transform="translate(0,0)"/>
<path d="" fill="#FEE445" transform="translate(0,0)"/>
<path d="" fill="#FEE445" transform="translate(0,0)"/>
<path d="" fill="#FFEF9C" transform="translate(0,0)"/>
<path d="" fill="#FEEE96" transform="translate(0,0)"/>
<path d="" fill="#FEE64F" transform="translate(0,0)"/>
<path d="" fill="#FEE64F" transform="translate(0,0)"/>
<path d="" fill="#FEED8A" transform="translate(0,0)"/>
<path d="" fill="#FEED8A" transform="translate(0,0)"/>
<path d="" fill="#FEEA78" transform="translate(0,0)"/>
<path d="" fill="#FEE86C" transform="translate(0,0)"/>
<path d="" fill="#FEEB84" transform="translate(0,0)"/>
<path d="" fill="#FEEA78" transform="translate(0,0)"/>
<path d="" fill="#FEED8A" transform="translate(0,0)"/>
<path d="" fill="#FEEA78" transform="translate(0,0)"/>
<path d="" fill="#FEEB84" transform="translate(0,0)"/>
<path d="" fill="#FEEA78" transform="translate(0,0)"/>
<path d="" fill="#FEEA78" transform="translate(0,0)"/>
<path d="" fill="#FEE75F" transform="translate(0,0)"/>
<path d="" fill="#FFEF9C" transform="translate(0,0)"/>
<path d="" fill="#FEEE96" transform="translate(0,0)"/>
<path d="" fill="#FEEB84" transform="translate(0,0)"/>
<path d="" fill="#FEE12B" transform="translate(0,0)"/>
<path d="" fill="#FEEB84" transform="translate(0,0)"/>
<path d="" fill="#FEE12B" transform="translate(0,0)"/>
<path d="" fill="#FFEF9C" transform="translate(0,0)"/>
<path d="" fill="#FEE65F" transform="translate(0,0)"/>
<path d="" fill="#FFF5BE" transform="translate(0,0)"/>
<path d="" fill="#FEE12B" transform="translate(0,0)"/>
<path d="" fill="#FEEB84" transform="translate(0,0)"/>
<path d="" fill="#FEE75F" transform="translate(0,0)"/>
<path d="" fill="#FFF7C9" transform="translate(0,0)"/>
<path d="" fill="#FEE445" transform="translate(0,0)"/>
<path d="" fill="#FFF3B0" transform="translate(0,0)"/>
<path d="" fill="#FEE12B" transform="translate(0,0)"/>
<path d="" fill="#FFF2AA" transform="translate(0,0)"/>
<path d="" fill="#FEE12B" transform="translate(0,0)"/>
<path d="" fill="#FFEF9C" transform="translate(0,0)"/>
<path d="" fill="#FEE123" transform="translate(0,0)"/>
<path d="" fill="#FFEF9C" transform="translate(0,0)"/>
<path d="" fill="#FEE12B" transform="translate(0,0)"/>
<path d="" fill="#FFF2AA" transform="translate(0,0)"/>
<path d="" fill="#FEE75F" transform="translate(0,0)"/>
<path d="" fill="#FFF3B0" transform="translate(0,0)"/>
<path d="" fill="#FEE86C" transform="translate(0,0)"/>
<path d="" fill="#FFF7CE" transform="translate(0,0)"/>
<path d="" fill="#FEEB84" transform="translate(0,0)"/>
<path d="" fill="#FEE123" transform="translate(0,0)"/>
<path d="" fill="#FFF3B0" transform="translate(0,0)"/>
<path d="" fill="#FEE65F" transform="translate(0,0)"/>
<path d="" fill="#FFEF9C" transform="translate(0,0)"/>
<path d="" fill="#FEE86C" transform="translate(0,0)"/>
<path d="" fill="#FFF5BE" transform="translate(0,0)"/>
<path d="" fill="#FEE86C" transform="translate(0,0)"/>
<path d="" fill="#FEEA78" transform="translate(0,0)"/>
<path d="" fill="#FFF5BE" transform="translate(0,0)"/>
<path d="" fill="#FEED8A" transform="translate(0,0)"/>
<path d="" fill="#FFEF9C" transform="translate(0,0)"/>
<path d="" fill="#FEE75F" transform="translate(0,0)"/>
<path d="" fill="#FEED8A" transform="translate(0,0)"/>
<path d="" fill="#FEEB84" transform="translate(0,0)"/>
<path d="" fill="#FEEE96" transform="translate(0,0)"/>
<path d="" fill="#FEEA78" transform="translate(0,0)"/>
</svg>
