<?xml version="1.0" encoding="UTF-8"?>
<svg version="1.1" viewBox="0 0 900 900" width="1280" height="1280" xmlns="http://www.w3.org/2000/svg">
<path transform="translate(0)" d="m0 0h900v900h-900z" fill="#FED409"/>
<path transform="translate(78,311)" d="m0 0h135l21 3 14 4 15 8 7 6 8 12 5 14 2 11v15l-4 15-6 12-9 10-10 7-5 3 17 8 9 7 8 9 8 16 4 17v22l-5 17-7 13-7 9-9 7-9 6-15 6-16 4-7 1-22 1h-121l-2-1v-261z" fill="#030202"/>
<path transform="translate(625,311)" d="m0 0h136l21 3 16 5 11 6 10 9 6 9 4 9 4 17v12l-4 17-7 14-7 8-10 7-6 3 4 3 14 7 9 7 7 9 8 16 4 17v17l-3 14-5 13-9 13-7 7-14 9-14 6-16 4-7 1-74 1h-33l-38-1-1-3v-258z" fill="#030202"/>
<path transform="translate(455,305)" d="m0 0h12l21 2 16 4 18 8 12 7 12 9 11 11 12 17 8 16 5 13 4 15 3 17v41l-5 23-7 19-9 17-7 10-11 12-12 11-19 11-22 8-21 3-5 1h-23l-27-5-21-8-12-7-11-8-13-12-9-12-10-17-6-15-5-19v-9l31-8 12-4 3 1 7 21 8 16 8 11 5 5v2l4 2 10 7 16 7 17 3h11l16-3 12-5 9-6 12-12 7-11 8-20 4-18v-24l-4-20-6-16-7-13-7-9-9-8-16-8-18-4h-16l-16 4-12 6-10 8-6 7-5 7-1 5 21 10 1 2-8 2-31 7-28 6h-5l-5-11-17-47-1-6 6 2 14 7 4-1 10-14 11-12 14-11 21-11 20-6 12-2z" fill="#030202"/>
<path transform="translate(685,456)" d="m0 0h62l11 1 12 5 8 6 4 5 4 8 1 5v17l-6 12-5 5-9 6-12 3h-72l-1-1v-69z" fill="#FED409"/>
<path transform="translate(142,456)" d="m0 0h57l11 1 13 5 8 6 5 7 3 8v21l-6 12-8 7-9 4-9 2h-72l-1-28v-35l1-9z" fill="#FED409"/>
<path transform="translate(135,356)" d="m0 0h65l12 3 9 6 5 7 3 12-1 12-4 9-9 8-10 4-4 1h-66l-1-1v-36z" fill="#FED409"/>
<path transform="translate(683,356)" d="m0 0h66l10 3 9 5 6 9 2 9v10l-2 8-4 7-7 6-10 4-4 1h-66l-1-1v-60z" fill="#FED409"/>
<path transform="translate(588,473)" d="m0 0h1v8l1 3-1 7-1 1v6l-3 1-1 7-3 5-2 5h-2l-1 5-8 11-3 6-5 5-7 8-9 6-5 2-11 7-4 2h-3l-1 3-7 2-1 3h-8l-3 3h-11l4-2h3v-2l22-8 14-8 8-6 10-9 11-12 9-15 8-17 6-20 1-4h2z" fill="#FEE00F"/>
<path transform="translate(846,503)" d="m0 0h1l1 7 1 1v10l-5 13-5 9-4 5-2 3-9 4-12 7-6 3-3 3-6 1-1 3-9-1v2h-2v2l-5 1-4-3 9-2v-2l16-5 13-7 10-8 7-8 5-8 6-16h2z" fill="#FEE210"/>
<path transform="translate(789,315)" d="m0 0 9 1v2l8 1 7 3 6 5v3h2l2 8 3-1 1 7 3 1 1 7 4 15 1 13 2 2-1 10-2 8-7 12-10 8-7 4 2-4 5-4 8-13 5-16 1-6v-12l-5-20-7-13-8-8-14-8-9-4z" fill="#FEE10F"/>
<path transform="translate(529,322)" d="m0 0 9 1 7 4 3 2v2l4 2 7 8v3l3 1 5 10v2l4 1 1 4-1 2h3l1 7 3 1 1 7 2 2v5h-2l-7-16-10-16-9-11-9-9-15-10z" fill="#FEE00F"/>
<path transform="translate(789,315)" d="m0 0 9 1v2l8 1 7 3 6 5v3h2l2 8 3-1 1 7 3 1 1 7 4 15v13l-2 1-2-17-4-15-7-13-8-8-14-8-9-4z" fill="#FEE00F"/>
<path transform="translate(295,519)" d="m0 0 2 3-1 9-3 5-5 8-4 4h-2v2l-14 10-7 4-2-1 5-5 9-6h2l1-3h2l2-4 7-10 4-8h2z" fill="#FEE00F"/>
<path transform="translate(417,309)" d="m0 0 4 1-10 4-19 9-10 7-13 11h-3l2-3h2l1-4 3-3 1-2 3-1 3-3 9-7 9-2 9-4z" fill="#FEE00F"/>
<path transform="translate(542,552)" d="m0 0 2 1-6 7-14 8h-3l-1 3-7 2-1 3h-8l-3 3h-11l4-2h3v-2l22-8 14-8 8-6z" fill="#FEDF0E"/>
<path transform="translate(819,553)" d="m0 0 2 1-5 6-10 5-3 3-6 1-1 3-9-1v2h-2v2l-5 1-4-3 9-2v-2l16-5 13-7z" fill="#FEDE0E"/>
<path transform="translate(284,384)" d="m0 0h2l-1 11 1 2 2 1-5 6-4 8-3 1-2 4-10 7v-3l8-7 7-12 4-13z" fill="#FEDF0E"/>
<path transform="translate(75,320)" d="m0 0h1v26l-1 40h-1l-1-41-1-4v-10z" fill="#FFE411"/>
<path transform="translate(821,336)" d="m0 0h2v2l3-1 1 7 3 1 1 7 4 15v13l-2 1-2-17-4-15-6-11z" fill="#FEDD0D"/>
<path transform="translate(510,376)" d="m0 0 6 4 8 14 1 7-3-4-4-4-1-5-3-4v-3h-2z" fill="#FEDE0E"/>
<path transform="translate(542,552)" d="m0 0 2 1-6 7-14 8h-5l4-3 16-10z" fill="#FEDD0D"/>
<path transform="translate(828,447)" d="m0 0 1 2 3-1 3 6 4 3-1 6h-2l-6-10-2-3z" fill="#FEDF0E"/>
<path transform="translate(429,360)" d="m0 0 3 1-10 6h-2l-2 4-8 6 1-4 9-8z" fill="#FEDE0E"/>
<path transform="translate(518,496)" d="m0 0 1 4-6 8-8 8h-2l1-3 5-5 6-7z" fill="#FEDE0E"/>
<path transform="translate(417,309)" d="m0 0 4 1-10 4-11 5h-2l1-3 9-4z" fill="#FEDE0E"/>
<path transform="translate(819,553)" d="m0 0 2 1-5 6-7 4h-6l4-3 11-7z" fill="#FEDC0D"/>
<path transform="translate(273,552)" d="m0 0 2 1-4 5-10 6-2-1 5-5z" fill="#FEDC0D"/>
<path transform="translate(773,385)" d="m0 0h2v13l-3 6-3 1 3-9z" fill="#FEE00F"/>
<path transform="translate(226,388)" d="m0 0h1v11l-4 7h-2l3-11z" fill="#FEDF0E"/>
<path transform="translate(269,330)" d="m0 0 5 5 7 10 1 6h-2l-6-12-5-7z" fill="#FEDD0D"/>
<path transform="translate(763,364)" d="m0 0 6 2 4 5 1 2v7l-2-2-3-7-3-3v-2l-3-1z" fill="#FEE00F"/>
<path transform="translate(147,357)" d="m0 0h36v1l-28 1-3 1-5-2z" fill="#FFE411"/>
<path transform="translate(791,569)" d="m0 0m-6 1h6l-4 1v2h-2v2l-5 1-4-3z" fill="#FFE411"/>
<path transform="translate(237,498)" d="m0 0h1v9l-4 7h-2l3-10z" fill="#FEDF0E"/>
<path transform="translate(219,366)" d="m0 0 4 1 3 5v7l-2-1-2-8h-2z" fill="#FEE00F"/>
<path transform="translate(527,477)" d="m0 0 1 2-2 8-2 4h-2l-1 2 1-5 4-10z" fill="#FEDF0E"/>
<path transform="translate(531,560)" d="m0 0 2 1-5 5-4 2h-5l4-3z" fill="#FEDB0C"/>
<path transform="translate(510,376)" d="m0 0 6 4 2 3-1 5-3-4v-3h-2z" fill="#FEE00F"/>
<path transform="translate(256,564)" d="m0 0 2 1-7 4h-2v2h-5v-2z" fill="#FFE411"/>
<path transform="translate(346,463)" d="m0 0 3 1h-2v2l-4 1h-9l3-2z" fill="#FEDF0E"/>
</svg>
