<?xml version="1.0" encoding="UTF-8"?>
<svg version="1.1" viewBox="0 0 900 900" width="1280" height="1280" xmlns="http://www.w3.org/2000/svg">
<path transform="translate(0)" d="m0 0h900v900h-900z" fill="#E42C30"/>
<path transform="translate(464,191)" d="m0 0h74l1 43 1 183 4 16 6 10 7 7 11 5 8 2h15l12-3 11-6 9-10 5-12 2-14v-219l1-1 12-1h71l1 1v226l-2 16-4 16-5 13-9 16-8 10-9 10-15 12-21 11-21 7-25 4h-25l-23-4-21-7-19-10-13-10-7-6-7-8-8-11-9-17-6-18-3-17-1-19v-207l1-7z" fill="#FDFEFE"/>
<path transform="translate(289,184)" d="m0 0h17l20 2 26 7 17 9 14 10 12 11 10 13 9 16 6 14 5 17 3 20v12h-82l-3-9-5-19-8-14-9-8-11-4-5-1h-15l-10 3-9 5-6 5-6 10-3 10-3 19-1 14v64l3 27 3 12 5 12 8 9 10 5 8 2h14l14-3 10-7 4-5 7-12 4-13 3-16h81l3 3-2 19-5 23-8 19-9 16-11 14-10 10-13 9-17 9-20 6-25 4h-25l-24-4-18-6-19-10-9-7-10-9-10-10-8-11-8-15-5-16-4-23-2-23-1-25v-37l2-31 3-25 4-17 5-13 9-14 9-11 12-12 13-10 21-11 20-6 12-2z" fill="#FDFEFE"/>
<path transform="translate(703,640)" d="m0 0h11v74h-35l-6-4-4-10-1-16 2-11 4-8 4-3 3-1 21-1v-19z" fill="#FDFEFE"/>
<path transform="translate(422,641)" d="m0 0h13v45l1 11 4 4 4 1h12l5-3 2-4 1-54h12l1 2-1 54-3 9-4 5-7 3-15 1-13-2-8-6-4-11z" fill="#FDFEFE"/>
<path transform="translate(186,587)" d="m0 0h309l251 1-4 2-255 1-16 8-15 8h-8l-28-15-3-1-236-1-5-1v-1z" fill="#FDFEFE"/>
<path transform="translate(259,661)" d="m0 0h27l4 4 3 7 1 6v18l1 7 3 4v6l-1 1h-21l-14 1-6-2-5-6-1-11 2-7 6-5 7-2 16-1-1-9-26-1v-8z" fill="#FDFEFE"/>
<path transform="translate(633,660)" d="m0 0h8l9 2 5 4 3 6 1 4v16l-1 1-31 1 1 6 2 3 3 1h25l1 1-1 8-3 1-14 1h-10l-8-2-6-7-3-8v-17l3-10 6-8z" fill="#FDFEFE"/>
<path transform="translate(364,638)" d="m0 0h9l2 2v22l7-1h16l5 3 3 5 1 6 1 18v19l-2 2h-8l-2-5-1-29-2-7-3-1h-15v26l-1 16h-10l-1-1v-74z" fill="#FDFEFE"/>
<path transform="translate(221,639)" d="m0 0 19 2 1 1v10h-25l-5 3-3 5-1 4v29l3 6 5 3 4 1 22-1v9l-3 3-10 1h-13l-9-2-6-4-5-10-2-9v-23l2-12 6-10 10-5z" fill="#FDFEFE"/>
<path transform="translate(512,661)" d="m0 0h15l5 4 3 6 1 6v37h-10l-1-1-1-29-1-12h-19v13l-1 29h-10l-1-1v-51z" fill="#FDFEFE"/>
<path transform="translate(318,661)" d="m0 0h28l1 1v9l-3 1h-24v7l17 4 8 4 4 6v11l-3 6-7 4-6 1h-18l-6-2-1-1v-8l5-1 6 1h17l1-8-18-4-8-4-3-5v-12l4-7z" fill="#FDFEFE"/>
<path transform="translate(581,646)" d="m0 0h11l1 14 12 1 2 2v7l-1 1-14 1 1 32 14 1v8l-7 2-13-1-4-4-2-8-1-29-7-3 1-9 6-1z" fill="#FDFEFE"/>
<path transform="translate(686,671)" d="m0 0h16v29l-1 3-8 2-8-1-4-6-1-7v-8l3-10z" fill="#E42C30"/>
<path transform="translate(553,661)" d="m0 0h9l1 1v51l-1 1h-8l-2-5v-47z" fill="#FDFEFE"/>
<path transform="translate(631,671)" d="m0 0h12l3 3 2 5v5h-22l1-7z" fill="#E42C30"/>
<path transform="translate(271,691)" d="m0 0h10v13l-5 1h-12l-2-4 1-8z" fill="#E42C30"/>
<path transform="translate(553,640)" d="m0 0h10v11l-1 1h-8l-1-1z" fill="#FDFEFE"/>
</svg>
