<?xml version="1.0" encoding="UTF-8"?>
<svg version="1.1" viewBox="0 0 900 900" width="1280" height="1280" xmlns="http://www.w3.org/2000/svg">
<path transform="translate(0)" d="m0 0h900v900h-900z" fill="#FFFFFD"/>
<path transform="translate(551,263)" d="m0 0 16 2 10 5 7 8 4 10 1 18 10-2h17l13 3 10 5 10 10 5 11 2 6 1 7v112l11-7 11-4 9-2h28l16 4 12 6 4 3 4-2 12-7 15-4h28l17 4 11 6 7 7 3 6v13l-4 10-6 9-1 4h2l8 13 3 12v14l-3 13-7 11-4 5-11 8-12 5-14 3h-19l-16-3-13-5-8-5-4 1-10 6-11 4-10 2h-20l-16-3-13-5-4-3h-5l-10 6-15 4-5 1h-26l-17-4-14-7-12-11-7-10-5-12-3-13-1-6-1-23-5-2h-5l-1 83-1 1h-58l-1-14-10 9-10 5-14 4h-18l-5-1v16l-3 11-9 10-8 4-4 1h-21l-12-3-2-2-1-37h-13l-14-3-10-7-7-9-2-2-9 16-4 3-10-1v24l-3 11-8 9-9 4-4 1h-8l-10-4-5-4-4-4-6 1-18 5-13 2h-16l-16-2-20-6-16-8-14-10-14-14-8-11-7-12-1-5h-36l-8-1 1-12 10-62 4-24 33-1 7-12 10-11 5-5 9-8 18-11 15-6 16-4 9-1h19l19 3 17 6 12 6-2-5-5-15-2-13v-19l3-16 6-14 10-13 10-8 14-7 18-4h17l16 3 16 8 3 3 8-5 12-5 12-3 8-1h20l16 3 12 5 11 10 2 3 4-2 5-5 10-7 9-4 15-3h19l20 4 9 3v-43l12-4z" fill="#101418"/>
<path transform="translate(170,416)" d="m0 0h11l17 2 16 5 16 8 9 7 6 5-1 4-6 5-7 8-5 6-5-2-10-7-13-6-15-3h-12l-12 2-13 5-14 9-8 8-1 2 48 1h30l2 1v11l-5 10-7 5-4 1-78 1-1 16h62l2 1-1 13-5 8-8 5-42 1v2l10 13 10 9 11 6 13 5 12 2h9l16-3 15-6v-2h-15l-6-4-3-7v-6l4-6 3-3 3-1h63l2-5 12-19 3-4-1-7-15-24-13-21-1-4 6-2 7-1h12l8 4 6 7 11 21h2l10-16 6-8 7-6 8-2 13 1 7 3-2 5-30 45-1 5 14 22 10 16 8 12v2l-10 3h-12l-8-3-7-6-13-20-1-4h-3l-2 5-15 25h-19v39l-3 5-5 4-9 1-5-3-4-5-1-4v-9l-18 9-15 5-10 2h-27l-18-4-16-7-10-6-15-13-11-14-9-17v-6h-38l-1-1 1-11 3-15 1-1h26l1-17h-24l-1-2 4-25 1-1h29l2-6 7-11 9-11 8-8 14-10 15-7 13-4z" fill="#92BD21"/>
<path transform="translate(170,416)" d="m0 0h11l17 2 16 5 16 8 9 7 6 5-1 4-6 5-7 8-5 6-5-2-10-7-13-6-15-3h-12l-12 2-13 5-14 9-8 8-1 2 48 1h30l2 1v11l-5 10-7 5-4 1-78 1-1 16h62l2 1-1 13-5 8-8 5-43 1h-69l-1-1 1-11 3-15 1-1h26l1-17h-24l-1-2 4-25 1-1h29l2-6 7-11 9-11 8-8 14-10 15-7 13-4z" fill="#FFFFFD"/>
<path transform="translate(410,458)" d="m0 0h21l12 5 10 9 8 16 2 9 1 9v13l-2 18-4 12-6 10-5 6-9 6-13 4h-15l-10-3-10-5v36l-3 7-6 5-5 1h-18l-1-2v-150l2-3 4-1 16 1 8 5 1 3 5-3 8-5z" fill="#FFFFFD"/>
<path transform="translate(544,277)" d="m0 0h18l7 3 5 6 1 4v38l11-7 9-3 7-1h13l12 3 6 4 6 7 4 11 1 9v79l-1 1h-30l-1-1-1-75-4-8-6-3h-10l-9 3-5 3-1 3-1 78h-31l-1-1v-151z" fill="#FFFFFD"/>
<path transform="translate(381,317)" d="m0 0h16l12 2 10 4 7 6 6 11 2 9 1 24v37l2 14 2 4v3l-11 3h-10l-8-4-3-4v-3l-11 6-10 4-5 1h-19l-12-5-7-6-6-11-1-6v-13l3-9 6-9 10-7 11-4 14-3 10-1h14l-3-12-5-5-7-2h-11l-15 4-11 5-4-1-4-8-1-9 4-5 10-5 14-4z" fill="#FFFFFD"/>
<path transform="translate(587,458)" d="m0 0h23l13 4 11 8 6 8 5 12 2 13v17l-1 2-67 1 1 9 4 8 8 7 9 3h12l10-3 10-6 5-1 6 10 1 3v7l-7 8-12 5-9 2h-26l-13-3-11-6-9-8-7-11-5-15-1-7v-22l4-14 5-10 7-8 10-7 12-5z" fill="#FFFFFD"/>
<path transform="translate(780,458)" d="m0 0h26l13 3 8 4 5 6v7l-5 13-5-1-12-6-10-3h-13l-7 4v7l5 5 27 8 11 6 7 8 4 10v15l-4 11-9 10-10 6-15 4h-21l-16-4-10-6-3-7 5-14 2-3 6 2 9 5 10 3h14l8-4 2-4-1-7-5-5-8-3-19-5-10-5-7-7-4-8-1-5v-11l3-10 9-10 10-6z" fill="#FFFFFD"/>
<path transform="translate(688,458)" d="m0 0h27l15 4 7 4v2h2l1 2v9l-5 12-6-2-10-5-10-3h-14l-5 3h-2v7l4 5 11 4 15 4 12 6 6 5 6 12 1 5-1 13-5 12-6 7-10 6-11 4-6 1h-20l-17-4-8-5-3-3-1-6 3-9 3-6 2-1 14 7 10 3h14l6-3 3-4v-8l-5-5-12-4-15-4-10-5-5-5-4-5-3-8v-16l4-9 7-8 14-7z" fill="#FFFFFD"/>
<path transform="translate(485,317)" d="m0 0h12l15 2 11 4 7 6 1 7-3 9-2 5-6-1-12-6-14-3-10 1-5 4-1 5 3 5 10 4 21 6 10 6 7 8 3 8 1 9-3 16-8 11-11 7-13 4-7 1h-13l-12-2-11-4-6-4-4-5 1-8 6-11 5 1 8 5 13 4h12l9-4 1-2v-10l-4-4-8-3-19-5-12-6-7-8-4-9-1-11 3-11 7-9 8-6 10-4z" fill="#FFFFFD"/>
<path transform="translate(261,460)" d="m0 0h12l8 4 6 7 11 21h2l10-16 6-8 7-6 8-2 13 1 7 3-2 5-30 45-1 5 14 22 10 16 8 12v2l-10 3h-12l-8-3-7-6-13-20-1-4h-3l-2 5-15 25h-18l-1-1v-23l11-18 7-10-1-7-15-24-13-21-1-4 6-2z" fill="#FFFFFD"/>
<path transform="translate(288,317)" d="m0 0h13l16 3 11 6 5 6 1 4-3 10-4 7-5-2-8-5-9-3h-13l-9 3-7 8-4 11v21l4 11 6 8 9 4h15l11-4 7-5 4 2 4 10 1 7-3 5-6 5-10 4-9 2h-21l-12-3-12-6-10-9-7-12-4-13-1-6v-23l5-16 7-11 8-8 10-6 12-4z" fill="#FFFFFD"/>
<path transform="translate(523,458)" d="m0 0h16l6 3v2h2l1 3v8l-2 8-4 10-6-2-6-3h-12l-6 3-3 1-2 12v63l-1 5h-32v-110l5-1h9l9 2 6 4 2 3 3-1 5-5z" fill="#FFFFFD"/>
<path transform="translate(402,482)" d="m0 0h11l7 3 6 7 3 8 1 6v17l-3 14-6 8-8 4h-12l-8-4-3-3v-51l3-5 5-3z" fill="#101418"/>
<path transform="translate(397,377)" d="m0 0h6l1 1v25l-7 6-11 4h-7l-7-3-5-6-1-10 3-7 5-4 9-4z" fill="#101418"/>
<path transform="translate(594,479)" d="m0 0h7l6 2 7 6 3 8v8l-1 1h-37l-2-1 2-11 4-7 7-5z" fill="#101418"/>
</svg>
