<?xml version="1.0" encoding="UTF-8"?>
<svg version="1.1" viewBox="0 0 900 900" width="1280" height="1280" xmlns="http://www.w3.org/2000/svg">
<path transform="translate(0)" d="m0 0h900v900h-900z" fill="#FECA09"/>
<path transform="translate(153,483)" d="m0 0h599l5 3 2 4 1 7v22l-4 8-10 2h-585l-10-1-4-5-1-4v-24l1-7 3-4z" fill="#250E12"/>
<path transform="translate(224,371)" d="m0 0h37l8 2 5 6 2 8 1 41v20l-1 27-1 1h-22l-2-2v-37l-16-1 1 39-1 1h-24l-1-1v-74l1-20 3-5 4-3z" fill="#CF232B"/>
<path transform="translate(360,371)" d="m0 0h24l1 1v38l18 1v-39l1-1h24l1 40v64l-1 1h-24l-1-7v-33h-18v39l-6 1h-18l-1-1z" fill="#CF232B"/>
<path transform="translate(619,371)" d="m0 0h23v79h17v-79h24l1 1v86l-3 10-5 6-2 1-10 1h-31l-7-2-6-7-2-7v-88z" fill="#CF232B"/>
<path transform="translate(300,371)" d="m0 0h46v25l-34 2v11l2 1 18 1 10 2 5 4 2 8v38l-3 7-6 5-20 1h-32l-2-1v-24l1-1h32l5-1v-10l-1-2-21-1-10-3-4-4-2-12v-31l2-7 7-6z" fill="#CF232B"/>
<path transform="translate(707,371)" d="m0 0h45l2 1v24l-23 1-11 1-1 12 22 1 8 2 5 4 2 4 1 6 1 28-2 11-6 7-6 2-31 1h-17l-2-1v-24l1-1h37v-11l-1-2-23-1-7-2-5-5-2-11v-33l2-7 8-6z" fill="#CF232B"/>
<path transform="translate(474,371)" d="m0 0h53l7 2 3 4 3 16v29l-3 7-5 5-6 2-27 1v38l-4 1h-20l-1-1z" fill="#CF232B"/>
<path transform="translate(156,371)" d="m0 0h43l2 2-10 9-1 6 6 4v4l-29 1v53h33l1 1v24l-1 1h-38l-11-2-6-5-2-5v-82l6-8z" fill="#CF232B"/>
<path transform="translate(287,372)" d="m0 0 4 2-3 7-1 5v31l2 12 5 4 8 2 21 1 2 3v10l-6 2h-32l-1 24h57l2 5h-7l1 2h-118l-1-1-10-1v2l-60 1-1-5-2-4 15 1h38v-24h-7l-1-2h8l1-5 3-1 4 4 1 30 6-1 20-1v-39h16l1 1v37l1 1h22l1-27v-67l8-8z" fill="#FDD902"/>
<path transform="translate(548,371)" d="m0 0h24l1 1v78h26l12 1v24l-1 1h-61l-1-1z" fill="#CF232B"/>
<path transform="translate(695,368)" d="m0 0h5l1 5-2 4-3 3-1 5v33l2 11 4 4 7 2 23 1 2 3v7l-1 4-3 1h-34l-1 24h19l31-1 7-3 4-5h2l1-2-1 5-5 6-3 5h-7l-4 2-16 1h-217l1-2h34l-1-4 7-2 2 1h64l2 4h10l1-5h39l10-1 5-4 3-7 1-5 1-84 7-5z" fill="#FECA09"/>
<path transform="translate(539,382)" d="m0 0h7l1 1 2 92 36 1v1h-37l-3-1-5 2v3l-15 1h-19l-1 1h-31v-2l-2 1h-28v-1l21-1 1-4h8 2l19-1h3v-38l1-1 27-1 8-3 4-7 1-3z" fill="#FECA09"/>
<path transform="translate(328,489)" d="m0 0h8l3 1 4-1h9l1 6-4 25-1 1h-7l-6 2-5-1-21-1-1-3v-28h8l2 7h2l2-5h2v-2z" fill="#27181C"/>
<path transform="translate(287,372)" d="m0 0 4 2-3 7-1 5v31l2 12 5 4 8 2 21 1 2 3v10l-6 2h-22l-10-1 1-2-2-2-4-5-5-1-1-12v-47l8-8z" fill="#FECA09"/>
<path transform="translate(385,436)" d="m0 0h18l1 10v30h24v1h-30l-2 3h6l2-2h15v2h12l1 3h-60l-3-2-10-1-2-4 25-1h3z" fill="#FECA09"/>
<path transform="translate(674,474)" d="m0 0 4 1-1 6h7v1l-7 1h-172l1-2h34l-1-4 7-2 2 1h64l2 4h10l1-5h39z" fill="#FDDA02"/>
<path transform="translate(312,397)" d="m0 0h23l2 2h-3l4 5-4 3-3 2h11v2l11-1 2 2 1 4 2 1 1 44h-4l-1 3-2-1-2 2v-40h-2l-2-8-4-3-10-2-18-1-3-2v-11z" fill="#FDD902"/>
<path transform="translate(695,368)" d="m0 0h5l1 5-2 4-3 3-1 5v47l-3 4-6 1v7h-1l-1-42v-28l7-5z" fill="#FDDA02"/>
<path transform="translate(490,489)" d="m0 0h1v7h8l1 25-2 1-18 1h-11l-1-2h4v-13l3-9 1 2h3l2-5 7-2 1-3z" fill="#21171B"/>
<path transform="translate(377,489)" d="m0 0h11l5 5 2 5v13l-3 6-4 3h-10l-3-1-4-6-1-3v-11l4-8z" fill="#FDF7E6"/>
<path transform="translate(228,489)" d="m0 0h10l5 4 3 7v11l-5 8-5 2h-9l-5-6-1-3v-13l3-7h2v-2z" fill="#FDF9EA"/>
<path transform="translate(252,489)" d="m0 0h14l5 2 2 9v14l-3 5-4 2h-14l-1-3v-28z" fill="#FDF7E9"/>
<path transform="translate(235,436)" d="m0 0h16l1 1v37l1 2-10 1-4-2-1-5h-2l-1 4z" fill="#FECA09"/>
<path transform="translate(287,372)" d="m0 0 4 2-3 7-1 5-1 37 1 7-3 6-3 1-4-2-1-7v-47l8-8z" fill="#FDD902"/>
<path transform="translate(692,489)" d="m0 0 15 1 4 2 1 2v10l-2 3 1 5 3 5v3l-7 1-2-1-3-8-3-2 1 10-8 1-1-1v-30z" fill="#FDFBF4"/>
<path transform="translate(521,490)" d="m0 0h16l4 2 2 5v6l-3 3 1 9h2l1 5-7 1-7-10-2-1 1 4v7h-6l-2-1z" fill="#FDFBF3"/>
<path transform="translate(286,489)" d="m0 0h7l3 3 5 21 1 7-6 1-3-5h-7l-1 4-7 1-1-2 5-23z" fill="#FDF8EC"/>
<path transform="translate(663,489)" d="m0 0h18l3 1v6h-13l1 5h11l1 1v6h-13l1 5 12 1v7h-20l-1-1z" fill="#FDF7E6"/>
<path transform="translate(558,489)" d="m0 0 7 1 6 19 1 11-1 1h-6l-3-6-5 1-1 4-7 1-1-5 2-9 4-15 1-2z" fill="#FDFAF2"/>
<path transform="translate(429,489)" d="m0 0h21v7h-13v5h13v6l-14 1v6l15 1v6h-20l-2-1z" fill="#FDF6E6"/>
<path transform="translate(174,489)" d="m0 0h10l3 1 1 5-1 1-10 1-4 3v10l3 4h5l-1-5-3-3 1-4 9-1 1 1v16l-1 2-3 1h-11l-6-4-2-5v-13l3-6z" fill="#FDFAED"/>
<path transform="translate(611,489)" d="m0 0h16v7h-12l2 4 11 7v9l-4 4-3 1h-11l-3-1-1-2v-7l5 2 7 1 1-4-5-2-7-4v-8l3-6z" fill="#FDF7E8"/>
<path transform="translate(635,489)" d="m0 0h21v6l-1 1h-13l1 5 13 1-1 8h-13l1 10-2 1h-6l-1-1v-30z" fill="#FDF5DE"/>
<path transform="translate(387,378)" d="m0 0 6 2 2 6h2l2 4 3-4 1 25h-16l-2-1v-29z" fill="#FDDA02"/>
<path transform="translate(757,464)" d="m0 0 1 3-6 8-3 5h-7l-4 2-16 1h-28l-1-1-7-1 1-4 6-2h20l31-1 7-3 4-5h2z" fill="#FDD803"/>
<path transform="translate(728,489)" d="m0 0h10l2 1v6l-3 1-9-1 2 4 10 6 1 9-3 5-4 1h-12l-2-2-1-8 5 2 1 1h8l-3-5-7-3-3-4v-7l2-4z" fill="#FDF8E7"/>
<path transform="translate(674,474)" d="m0 0 4 1-1 6h7v1l-7 1h-31l-31-1v-1l9-1 1-5h39z" fill="#FDD802"/>
<path transform="translate(356,489)" d="m0 0h11v31h-8v-6h-8l2-15 2-4z" fill="#FDF8E8"/>
<path transform="translate(539,382)" d="m0 0h7l1 1v40l-1 7-2-3-2 6-7 1-5 2v-2l4-2 4-7 1-3z" fill="#FDD902"/>
<path transform="translate(456,489)" d="m0 0 8 1 3 6h3l2-6 1-1h6l-1 7-3 7-2 5-1 13h-7l-1-1-1-11-5-12-2-4z" fill="#FDF7E7"/>
<path transform="translate(491,489)" d="m0 0h24l1 1v6l-8 1-1 23-7 1-1-1v-24h-8z" fill="#FEF7DD"/>
<path transform="translate(195,489)" d="m0 0h8l1 24h11l1 7-2 1h-18l-1-1z" fill="#FDF9EF"/>
<path transform="translate(308,490)" d="m0 0h8v24h12l1 1v5l-6 1h-14l-1-3z" fill="#FDF5DC"/>
<path transform="translate(594,489)" d="m0 0 6 1v31h-11l-1-4v-11l5-16z" fill="#FEFCF6"/>
<path transform="translate(400,489)" d="m0 0h10l2 2v9l-2 11-2 9h-8z" fill="#FEFBF1"/>
<path transform="translate(416,489)" d="m0 0h7v31l-3 1h-8l-1-9 2-11 2-5z" fill="#FDF6DE"/>
<path transform="translate(578,489)" d="m0 0h7l3 1v10l-3 12-1 9h-7v-31z" fill="#FEFDF9"/>
<path transform="translate(651,384)" d="m0 0 2 3 1 7v24l-4-1-3-7-2-1-1 9h-1v-33l4 4 4 1z" fill="#FDDB02"/>
<path transform="translate(343,489)" d="m0 0h9l1 6-4 25-4 1-3-3v-28z" fill="#FDF5DB"/>
<path transform="translate(236,396)" d="m0 0h9l6 2v13h-16l-1-1v-8z" fill="#FDD603"/>
<path transform="translate(499,397)" d="m0 0h14l2 4v8l-2 2h-14l-1-1v-12z" fill="#FDD803"/>
<path transform="translate(338,479)" d="m0 0 6 1v1l11 1v1h-191v-1h46v-2h10l1 1h116z" fill="#FFCA0A"/>
<path transform="translate(499,471)" d="m0 0 5 5v4l-17 1-6-1-9 1v1h-28v-1l21-1 1-4h8 2l19-1h3z" fill="#FDD902"/>
<path transform="translate(450,490)" d="m0 0h1l1 18-3 5 1 2h-12l-2-1v-6l2-1h12v-6h-13v-5h13z" fill="#521E16"/>
<path transform="translate(215,368)" d="m0 0h2l1 4-5 6-2 6-1 11-3-1-3 4-1 2-4-2v-3l5-1 2-20 5-3 1-2z" fill="#FDD902"/>
<path transform="translate(386,467)" d="m0 0 2 3 3 6v3l3 1-3 2h-9v-1h-7l-4 1-2-1-10-1-2-4 22-1 6 1z" fill="#FDD902"/>
<path transform="translate(187,495)" d="m0 0 1 3-1 4-9 1v5l4 2-1 5h-5l-4-5v-10l5-4z" fill="#2C1314"/>
<path transform="translate(313,437)" d="m0 0h11l1 2v10l-1 1h-16l3-6h2l1-5z" fill="#FDD902"/>
<path transform="translate(733,397)" d="m0 0h8l-1 3h-2l-2 6-7 2h-2v2h-8v-12h7v3h9z" fill="#FDDA02"/>
<path transform="translate(691,475)" d="m0 0 17 1v4h10l-1 3h-23l-1-1-7-1 1-4z" fill="#FECB09"/>
<path transform="translate(201,375)" d="m0 0 5 1-1 16-1 2-5-1-5-6v-5l4-4h2z" fill="#3A191E"/>
<path transform="translate(575,430)" d="m0 0 4 2v3h2l2 5 1 4-2 4 7 1v1h-16l1-19z" fill="#FDDA02"/>
<path transform="translate(156,490)" d="m0 0h2l2 25 4 6 1 3-5-1-3-1-3-6v-21z" fill="#1F181C"/>
<path transform="translate(231,496)" d="m0 0h6v17l-1 1h-5l-2-2v-14z" fill="#201012"/>
<path transform="translate(721,437)" d="m0 0h9l1 1v12h-12l-1-3 3-5z" fill="#FDDA02"/>
<path transform="translate(354,376)" d="m0 0 1 4v12l-5 5h-2l-1-2v-14l4-4z" fill="#FDDB02"/>
<path transform="translate(379,496)" d="m0 0h7l1 8-1 9-1 1h-5l-1-1z" fill="#1E0E11"/>
<path transform="translate(756,524)" d="m0 0v3l-2 1h-113v-1l110-1z" fill="#2E181D"/>
<path transform="translate(385,436)" d="m0 0 17 1v6l-4 1-1 3-6-2-6-5z" fill="#FDDA02"/>
<path transform="translate(429,469)" d="m0 0 2 1 2 8-1 2h-13v-2l-10 1h-5l-2 2h-6v-3l2-2 30 1z" fill="#FDDA02"/>
<path transform="translate(594,480)" d="m0 0h12v1l40 1v1h-85v-1l31-1z" fill="#FECA09"/>
<path transform="translate(652,433)" d="m0 0h1v10l-3 5 3 2h-9l-1-2v-8l5-2 2-4z" fill="#FDDA02"/>
<path transform="translate(747,495)" d="m0 0 4 1 1 2v12l-1 2h-3l-3-3-1-3v-7z" fill="#1F181C"/>
<path transform="translate(202,372)" d="m0 0h2l-1 3-8 7v5l2 2v3l-5-2-3-2 1-6 10-9z" fill="#FDD504"/>
<path transform="translate(691,475)" d="m0 0 11 2v3h-3v2l-13-1 1-4z" fill="#FDDB02"/>
<path transform="translate(728,496)" d="m0 0h12l1 6-4 2-5-2-4-3z" fill="#2B1112"/>
<path transform="translate(655,495)" d="m0 0 1 2-3 1v2h2v2h-12l-1-1v-5z" fill="#351815"/>
<path transform="translate(609,440)" d="m0 0 4 2 3 3v6h-5l-4-4v-5z" fill="#FDDB02"/>
<path transform="translate(284,450)" d="m0 0 3 1-1 24 2 1-3 1-2-4v-8l-1-5h2z" fill="#FFCA0A"/>
<path transform="translate(588,492)" d="m0 0h1v7l2 1-2 6-1 10h-3l-1 4v-8l3-12z" fill="#762D19"/>
<path transform="translate(437,496)" d="m0 0h12v5h-12z" fill="#0E090F"/>
<path transform="translate(168,440)" d="m0 0 7 2 1 3-4 5h-5z" fill="#FDDA02"/>
<path transform="translate(286,515)" d="m0 0h7l3 6h-13l2-1z" fill="#4A1C1A"/>
<path transform="translate(671,496)" d="m0 0h10l2 1v3l-3 1h-9z" fill="#11090F"/>
<path transform="translate(574,381)" d="m0 0 3 3 1 8h-3l1 11-1 8h-1z" fill="#FDDB02"/>
<path transform="translate(327,363)" d="m0 0 3 1v2l-8 1h-10l-2-2 1-1z" fill="#FDDB02"/>
<path transform="translate(699,495)" d="m0 0 6 1-1 7h-5l-1-7z" fill="#492614"/>
<path transform="translate(259,508)" d="m0 0h7l-1 5-2 2-5-1v-5z" fill="#321916"/>
<path transform="translate(576,489)" d="m0 0 2 1-1 31-4 1-2-2 2-3v2l2-1z" fill="#4F251D"/>
<path transform="translate(529,496)" d="m0 0h5l1 4-2 3h-5v-6z" fill="#3E1819"/>
<path transform="translate(548,480)" d="m0 0h8l1 3h-27v-1l14-1z" fill="#FFCA0A"/>
<path transform="translate(201,375)" d="m0 0 5 1-1 16-1 2-5-1 2-1 2 1v-15h-3z" fill="#CF232B"/>
<path transform="translate(289,497)" d="m0 0h2l1 2v9h-4v-9z" fill="#582E16"/>
<path transform="translate(235,437)" d="m0 0h15l1 3-2 1-11-2-2 2z" fill="#FDDB02"/>
<path transform="translate(258,496)" d="m0 0h6l1 5-1 1h-5l-1-1z" fill="#351117"/>
<path transform="translate(643,517)" d="m0 0 1 2h12l1 3h-12l-2-2z" fill="#1F181C"/>
<path transform="translate(513,398)" d="m0 0 2 3v8l-2 2h-14v-1l13-1-2-2h3z" fill="#FECA09"/>
<path transform="translate(560,499)" d="m0 0 2 2 1 7h-5v-6z" fill="#692F1D"/>
<path transform="translate(286,382)" d="m0 0 1 4-1 22h-1l-1-25z" fill="#FFCA0A"/>
<path transform="translate(739,496)" d="m0 0h1l1 6-4 2-4-2 2-1-1-2 3-1z" fill="#30191D"/>
<path transform="translate(452,506)" d="m0 0h1l1 11h-2l-1 2-1-4-2-2 3-5z" fill="#24181C"/>
<path transform="translate(437,498)" d="m0 0h11l-2 3h-9z" fill="#24171C"/>
</svg>
