<?xml version="1.0" encoding="UTF-8"?>
<svg version="1.1" viewBox="0 0 2048 1436" width="1280" height="1280" xmlns="http://www.w3.org/2000/svg">
<path transform="translate(0)" d="m0 0h2048v1436h-2048z" fill="#FDFEFD"/>
<path transform="translate(993,173)" d="m0 0h21l27 2 39 6 28 7 30 10 26 11 27 14 18 11 15 10 19 14 11 9 24 22 9 9 7 8 12 14 14 19 13 20 11 19 14 28 11 28 8 26 7 30 5 33 2 27v31l-3 33-4 24-5 23-8 27-10 27-13 28-12 22-9 14-10 14-12 16-12 14-12 13-18 18-11 9-12 10-18 13-16 10-17 10-26 13-27 11-28 9-33 8-51 7-21 1h-10l-32-3-35-5-29-7-26-8-16-6-23-10-23-12-18-11-16-11-13-10-17-14-15-14-18-18-9-11-12-14-13-18-12-19-10-18-8-16-9-20-9-25-7-24-7-32-4-27-1-12v-43l2-26 4-30 6-25 7-24 10-28 6-14 2-1-2 9-9 27-5 22-4 29-2 27v11l2 26 3 19 7 24 8 20 8 15 8 12 8 10 9 10 7 7 14 11 13 8 15 8 21 8 21 6 19 4 18 2h38l28-3 29-6 29-8 26-9 28-12 28-14 25-15 21-14 28-21 14-11 15-12 3-1-1 9-8 45-5 26-1 14 4 11 7 9 7 4 4 1h21l10-3 6-4 5-4 7-14 4-14 14-77 17-95 1-7v-14l-5-10-9-9-6-2-10-1h-188l-11 2-11 6-8 7-5 10-2 7v18l3 8 7 8 5 3 8 2 100 1-4 7-13 12-13 11-18 13-20 13-18 10-16 8-23 10-28 9-23 5-23 4-19 1-19-1-26-5-20-7-16-8-11-8-9-7-14-14-10-14-8-15-5-13-5-21-2-18v-22l3-29 4-23 7-26 7-20 9-20 11-21 13-21 8-11 11-14 12-13 7-8 12-12 11-9 13-11 18-13 23-14 18-10 17-8 24-9 22-6 17-3z" fill="#DA342F"/>
<path transform="translate(1131,1026)" d="m0 0h25l19 3 16 7 11 8 8 9 5 11v8l-6 8-8 5-7-1-9-10-4-5-9-6-9-4-14-2-17 1-10 3-13 7-6 5-8 10-8 15-5 17-1 15 2 13 5 14 7 10 1 3 4 2 10 6 8 3h24l11-3 12-7 8-9 9-19 1-3-43-1-5-2-3-5 1-9 4-10 2-1h73l3 2 1 8-2 15-11 60-3 10-3 2-11-1-7-4-5-10-5 2-8 6-13 5-15 3h-12l-16-2-14-4-16-8-12-11-8-11-6-14-4-18-1-25-1-5-5 11-9 16-10 16-12 21-8 13-15 26-12 19-9 16-8 9-11 3-11-1-7-4 2-8 8-14 9-14 6-11 7-11-1-7-3-9-7-31-8-30-6-25-3-13v-6l6-4 7-2h12l6 4 4 12 8 35 5 23 3 10h2l12-22 9-15 16-28 7-11 5-5 7-4h7l12 4 14-18 5-5 10-9 13-8 11-5z" fill="#090304"/>
<path transform="translate(348,1028)" d="m0 0h24l5 4 5 12 10 40 10 39 2 4 2 1 2-5 8-14 14-22 10-16 16-26 6-9 5-6 6-2h23l7 3 3 6v11l-4 22-8 45-6 37-5 26-3 17-5 10-4 3h-14l-7-2-3-4v-12l12-71 5-28v-8l-5 8-9 15-7 11-21 35-4 6-6 6-3 1-18 1-6-3-4-5-16-64-4-10-2 7-13 73-6 31-3 9-4 3-11 1-10-2-4-3v-12l6-37 8-45 11-60 3-11 3-5 3-3z" fill="#080304"/>
<path transform="translate(1383,1070)" d="m0 0h15l16 4 10 6 10 9h2l7-11 5-4 9-2h9l5 3-3 26-8 47-5 29-2 17-3 9-4 4-3 1h-13l-5-3-3-6-3-9-5 5-8 7-13 6-5 1h-23l-11-3-11-6-10-10-8-14-4-13v-25l4-19 8-16 9-12 10-9 12-7 13-4z" fill="#090405"/>
<path transform="translate(1553,1070)" d="m0 0h15l15 4 9 6 6 9 3 6v2h2l2-4 11-12 10-6 10-4 5-1h18l10 3 10 6 7 7 6 12 2 7v13l-3 24-7 38-3 17-5 8-4 3h-11l-10-2-3-5 1-16 8-47 1-7v-17l-3-6-1-3-4-2-7-3h-15l-9 4-5 4-7 11-5 21-7 40-5 21-3 5-4 2h-9l-10-2-5-3v-14l10-58v-14l-4-10-6-5-7-2h-12l-9 3-9 9-5 10-9 49-4 23-5 11-4 3h-14l-8-2-2-6v-12l4-26 12-66 3-18 4-6 6-1 10 3 6 5 7 10h2l4-6 7-7 12-5z" fill="#090405"/>
<path transform="translate(565,1070)" d="m0 0h17l15 3 16 8 10 8 7 10 5 11 3 11v25l-4 18-8 16-8 10-10 8-17 8-12 3h-26l-12-3-16-8-9-8-7-10-5-10-3-14v-14l2-16 5-15 6-12 11-12 8-6 14-7z" fill="#080304"/>
<path transform="translate(855,1070)" d="m0 0h20l15 3 9 4 8 6 7 7 6 12 3 11 1 6v18l-4 6-8 4-14 1h-78l-2 1 1 10 5 10 6 7 8 5 9 2h16l16-3 10-5 5-5 5-4 8-1 6 5 3 6-1 7-7 10-8 6-10 5-19 5-8 1h-14l-16-2-12-4-11-6-12-12-7-14-3-16v-14l3-18 5-14 6-10 7-9 9-8 12-7 17-5z" fill="#0A0405"/>
<path transform="translate(727,1070)" d="m0 0h16l12 3 9 5 7 7 8 16 1 4v20l-8 46-5 24-4 11-5 2h-10l-9-2-4-4v-14l10-59v-12l-5-10-7-5-7-2h-11l-10 3-8 7-5 6-4 9-4 18-9 49-4 13-6 3h-10l-9-2-4-4v-14l9-52 6-36 4-17 4-11 6-1 12 3 5 5 4 11v2l14-14 12-6z" fill="#090404"/>
<path transform="translate(1300,1070)" d="m0 0h11l9 3 7 6 3 5 1 8-5 10-6 7-4-1-9-5-4-1h-13l-6 4-8 9-7 14-5 19-9 46-4 10-3 3-3 1h-8l-9-2-5-4-1-3v-8l10-57 9-49 4-12 1-1h11l9 3 4 9 2 4 6-5h2l2-4 9-6z" fill="#0A0405"/>
<path transform="translate(566,1096)" d="m0 0h13l11 4 6 4 7 8 5 10 1 5v18l-4 13-7 11-9 8-10 5-11 2-13-1-10-5-8-9-4-8-2-6-1-7v-8l3-12 5-10 8-10 8-7 8-4z" fill="#FDFEFD"/>
<path transform="translate(1386,1096)" d="m0 0h19l9 4 5 4 6 9 3 11v14l-3 14-7 14-9 9-10 6-14 3h-8l-9-2-8-6-6-9-3-11-1-11 2-12 5-12 6-10 7-7 10-6z" fill="#FDFEFD"/>
<path transform="translate(664,757)" d="m0 0 3 1 4 5 3 5 4 2 5 5 3 6v2l3 1 11 14 8 9v2l5 2 5 6 9 7v2h2l7 8 5 6-1 2 4 2 11 9v2l5 2 13 10 9 6 16 11 9 5 1 2 5 2 7 3 4 2 1 2 5 2 9 2 4 3 16 8 16 5 36 12 8 2 11 4 5 1v-2l6 1 4 3h9l5 1h9l11 3v-2l6-2 15 2 16 1h18l7-1 4 2-3 1 1 2-2 1 1 2-10 2-8 1-21 1h-10l-32-3-35-5-29-7-26-8-16-6-23-10-23-12-18-11-16-11-13-10-17-14-15-14-18-18-9-11-12-14-13-18-12-19z" fill="#F13130"/>
<path transform="translate(647,399)" d="m0 0 1 2-11 34-5 22-4 29-2 27v11l2 26 3 19 7 24 1 4-2 2-3-2-3-8h-2l-2-6h-3l3 12 7 10 2 3 2 16 2 5v8l4 4-1 3-2-1v2l-2 1 4 2 4 1 2 1-1 5h-4l1 4-1 3-3 1-1-4 2-1v-3l-2 1-1-2-2 3-4-1 2 10 2 1 1 11 2 2-2 2v6l-3-2-1-1-2 2-1-6h-2l-6-20-7-32-4-27-1-12v-43l2-26 4-30 6-25 7-24 10-28 6-14z" fill="#F13130"/>
<path transform="translate(954,180)" d="m0 0 2 1h7v3 2l18-2 2 1h17 3 3v2h2l1-2 8 1 1-1h5l1 1h9l5-1 2 4h-16l-3 1-7-1-4 1-1 1 14 1h11v1l-20 3-24 1-14 6-9 2-9 3-14 3-4 2h-6l-4 2-9 2-9 4-6 3-13 5-7 4-2-2 5-1-1-3-2 2-9 2-14 4-5 5-4 2-15 9-4 1-2 1-1-3 9-8 7-4 5-5 15-11 9-5h2v2l12-6 15-8 10-3 13-5 10-6 4-1 3-2-1-2-1-3z" fill="#F23130"/>
<path transform="translate(719,497)" d="m0 0h1l1 6 1 3 3-1v4l4 21 4 9v3h2l7 14 2 3 1 8 2 1 6 8 13 7 13 10 10 5v2l6 2 5 3 9 3 3 2v2l12 2h3 2l3 3 11 3h7l1 1h29l2 1 14-4 11-2h5l1-2 7-1-1-2 22-7 13-4 6-3 3 1-6 4 1 4h-2v2l-30 10-23 5-23 4-19 1-19-1-26-5-20-7-16-8-11-8-9-7-14-14-10-14-8-15-5-13-5-21-1-10h1z" fill="#F13130"/>
<path transform="translate(1175,215)" d="m0 0 16 8 18 11 15 10 19 14 11 9 24 22 9 9-1 2h-2l-1-2h-3l-1 2h2v3l5 2-1 3-9-5-7-3-2 2-9-7-10-9-7-5v-2h-2v-5l-5-2-10-6-4-3v-2l-4-2-5-3-3-5-7-7-2-4 1-1-7-5-4-1 1 3-2 2-4-2v-3l-2-1v-2h-2v-2h-6l-4 2v-2l-5-1v-2l-4-2v-2l-2-1-1-4 4 1 5 3v2l5 1 2 1-1-3-5-3-1-2 7 1z" fill="#F13130"/>
<path transform="translate(1293,817)" d="m0 0h2l-2 6-12 13-18 18-11 9-12 10-18 13-16 10-17 10-26 13-27 11-28 9-33 8-23 3-3-2 6-2 17-3 34-10 10-5 17-6 13-5 12-5 17-9-8 2 5-4 3-3 8-1 1-4 16-7 5-2 11-6 11-7 9-6h2l1-3 4-1v-2l7-4 5-5 8-4 9-8 5-4 7-8z" fill="#F13130"/>
<path transform="translate(856,1095)" d="m0 0h18l8 3 6 4 5 8 3 11-1 3-5 1h-69l-1-2 7-11 9-8 16-8z" fill="#FDFEFD"/>
<path transform="translate(1053,527)" d="m0 0h16l6 4-14 14-11 9-16 12-23 15-18 10-5 1v-2l2-2 3-2-5 1-8 4-3-1 11-6 9-6 6-2 6-4h2l1-4 4-2v-4l-2-2 3-4-1-1v-5l-2-1 3-6-5 1v-5h5v2l5 2 1-3h2v-2l8 1v-3l5-1 3 2-1-3 2-3-1-2z" fill="#F23130"/>
<path transform="translate(1718,1167)" d="m0 0h7l8 4 6 10 1 3v7l-4 9-8 7-7 2h-7l-9-6-5-7-1-4v-12l3-6 6-5z" fill="#FDFEFD"/>
<path transform="translate(1718,1167)" d="m0 0h7l8 4 6 10 1 3v7l-4 9-8 7-7 2h-7l-9-6-5-7-1-4v-12l3-6 6-5zm-1 4-11 4-3 4v9l3 8 8 7 4 2h6l7-6 5-9-1-7-7-8-4-3z" fill="#2D0B0B"/>
<path transform="translate(1119,445)" d="m0 0h39l15 1 2 1v2l9 1 1 3-17-1-76-1 1-3h-13l1-2h14z" fill="#F23130"/>
<path transform="translate(1102,621)" d="m0 0 1 2h2v5l-5 1-4-1v2l3-1v5l2 1 1-2v2l3 1 1 6h2l-1 3v-2l-4-2 1-2-5-2-5 1-3 2-8-1-3 4h-2v2l-5-1-1 3-8 5-6 2-3 3-6 4-3 4-11 4-7 4h-2l-2 4-2-3 3-1v-2l5-3h3l2-4 8-3 5-2v-3l7-4h3l1-2 8-5 2-3 5-2 3-1 1-2 5-1h3v-2l4-3 2-5 5-1v-2z" fill="#F23130"/>
<path transform="translate(647,399)" d="m0 0 1 2-11 34-5 22-3 18-6 5-2-1-1 2 1-8 8-28 10-29 7-16z" fill="#DC342F"/>
<path transform="translate(612,536)" d="m0 0h1l1 55 2 8 5 1 4 8 2 7-2 3h-2v-2l-3-1v-2l-1 4h-2l1 6-2 3-4-24-1-12v-43z" fill="#DE342F"/>
<path transform="translate(1112,594)" d="m0 0 3 3-1 14-2 6-6 1v-3l-9 1-4 2 1-5h4v-6l3-4h2v-2z" fill="#F33131"/>
<path transform="translate(1021,565)" d="m0 0 2 1-4 7v3l-22 13-6 3h-3v-2l2-2 3-2-5 1-8 4-3-1 11-6 9-6 6-1 6-2 5-5z" fill="#EE3130"/>
<path transform="translate(990,585)" d="m0 0 4 1-1 3-5 1 1 3-16 8-14 6-3-1 1-1-1-3 5-4h2v-2l14-5 10-4z" fill="#DE342F"/>
<path transform="translate(1717,1175)" d="m0 0h6l3 5-2 14-1 3-6-1-4-4-1-9z" fill="#1F0809"/>
<path transform="translate(1015,666)" d="m0 0h4l-1 2-2-1-1 3-8 4-4 4-4 1v2l-8 2-6 3-4-1 1-4 9-5 8-4h7v-2l7-3z" fill="#F23130"/>
<path transform="translate(746,358)" d="m0 0 2 1 1 2-2 9-6 16-5 17-2 1v-6l2-4-2-1h2l-1-5 1-3 2-2 1-11z" fill="#F13130"/>
<path transform="translate(725,436)" d="m0 0 2 1 1 17v7l-2 7-1 5-1-4-2-1-1-1v-11l2-17z" fill="#F23130"/>
<path transform="translate(920,206)" d="m0 0h11l-1 2-10 5-10 3-8 3-3-1 11-7z" fill="#DA352F"/>
<path transform="translate(1033,654)" d="m0 0 5 1 1 2-9 6-4 3h-5l2-5z" fill="#F23130"/>
<path transform="translate(1021,565)" d="m0 0 2 1-4 7v3l-5 2-3-1-4 1-1-2 3-1 5-5z" fill="#DA342F"/>
<path transform="translate(1118,588)" d="m0 0 1 4-4 21h-1v-16l-2-2-2-1z" fill="#E1332F"/>
<path transform="translate(1187,451)" d="m0 0h10l6 4 3 5-1 3-7-6-8-4z" fill="#F03130"/>
<path transform="translate(1201,230)" d="m0 0 4 2 3 6 4 4 2 4-5-2-4-2-5-5v-2h3z" fill="#DB342F"/>
<path transform="translate(948,196)" d="m0 0h5l-1 3-11 4-2 1-5-2 4-3h7v-2z" fill="#DA352F"/>
<path transform="translate(808,618)" d="m0 0h6l8 2 8 3v1l-10-1-12-4z" fill="#DE342F"/>
<path transform="translate(1134,205)" d="m0 0 11 2 2 1v2l6 2 1 2-6-1-7-4-7-3z" fill="#F33131"/>
<path transform="translate(1048,645)" d="m0 0h5l-1 4-6 4-3-1 2-4z" fill="#F23130"/>
<path transform="translate(642,678)" d="m0 0h1l2 14-3-1-2-9z" fill="#F33131"/>
<path transform="translate(738,375)" d="m0 0 2 1-1 8-3 1-1 4-2 1 3-10z" fill="#DD342F"/>
<path transform="translate(647,399)" d="m0 0 1 2-4 12-2-1 1-5z" fill="#E0342F"/>
<path transform="translate(1173,687)" d="m0 0h3v5h-2l-1 3-1-2-2-1z" fill="#F03130"/>
</svg>
