<?xml version="1.0" encoding="UTF-8"?>
<svg version="1.1" viewBox="0 0 2048 1146" width="1280" height="1280" xmlns="http://www.w3.org/2000/svg">
<path transform="translate(0)" d="m0 0h2048v1146h-2048z" fill="#FFFFFE"/>
<path transform="translate(838,441)" d="m0 0h11l19 2 25 7 16 7 15 9 10 8 10 9 7 7 11 15 9 16 7 16 7 27 1 7v20l-3 18-6 21-11 23-7 11-9 11-14 14-18 13-16 8-19 7-23 4-9 1h-18l-24-4-18-6-16-8-16-10-15-14-8-8-12-17-8-15-7-18-5-27v-26l4-22 7-21 9-17 10-14 9-10 4-5 14-11 15-10 19-9 20-6 11-2z" fill="#E2082E"/>
<path transform="translate(1135,441)" d="m0 0h12l19 2 25 7 16 7 13 8 11 8 15 14 11 13 2 3-1 5-12 9-14 11-11 9-9 7-5 3-4-1-7-11-9-9-14-9-11-4-14-3h-15l-18 5-11 6-9 7-8 8-8 13-5 12-2 12v16l4 17 8 16 6 8 9 9 13 8 11 4 14 2 19-1 13-4 12-6 12-11 8-10 2-5 5 1 11 8 12 10 20 15 8 7-1 5-4 6-5 5-7 8-10 9-12 9-16 9-20 8-20 4-17 2h-15l-20-3-15-4-18-7-14-8-9-7-10-9-14-14-11-16-5-9-7-15-5-15-3-14-1-12v-10l2-18 5-22 8-18 6-11 8-12 12-14 8-8 13-10 15-9 13-6 15-5 18-4z" fill="#E2082E"/>
<path transform="translate(838,509)" d="m0 0h13l20 5 15 8 13 12 7 10 6 12 3 14v23l-3 12-5 12-7 10-8 9-10 8-10 5-14 4-19 1-14-2-12-5-11-7-10-9-9-12-7-16-2-7-1-8v-12l3-17 4-10 8-12 9-10 11-8 13-6z" fill="#FFFFFE"/>
<path transform="translate(1342,464)" d="m0 0h2v260l-5-2-11-10-13-10-14-11-16-13-9-7-2-5-1-24 1-122 4-6 8-6 13-11 17-13 11-9 13-10z" fill="#E2082E"/>
<path transform="translate(1343,395)" d="m0 0 2 3v38l-7 8-16 13-14 11-13 10-17 13h-3l-1-18v-22l4-6 13-10 14-11 13-10 14-11z" fill="#E2082E"/>
</svg>
