<?xml version="1.0" encoding="UTF-8"?>
<svg version="1.1" viewBox="0 0 2048 821" width="1280" height="1280" xmlns="http://www.w3.org/2000/svg">
<path transform="translate(0)" d="m0 0h2048v821h-2048z" fill="#FCD90B"/>
<path transform="translate(0)" d="m0 0h2048v821h-2048zm421 10-38 3-34 5-26 6-33 10-27 10-28 13-20 11-18 11-14 10-13 10-10 8-20 18-21 21-7 8-13 16-10 14-13 20-12 21-11 22-10 25-7 21-7 28-6 33-2 22-1 19v18l2 28 4 27 6 29 10 35 8 21 12 27 14 26 13 21 16 22 11 14 10 11 7 8 18 18 8 7 7 7 14 11 15 11 15 10 18 11 30 15 21 9 19 7 30 9 27 6 28 4 34 3 32 1h1171l22-1 34-4 24-4 25-6 36-12 25-10 29-14 21-12 16-11 16-12 14-11 16-15 25-25 7-8 9-11 12-16 8-12 12-19 9-16 8-16 8-17 10-27 7-23 7-31 5-31 1-12v-53l-2-28-7-39-8-31-9-26-13-29-11-21-12-19-12-17-13-16-9-11-25-25-8-7-14-12-19-14-17-11-15-9-24-13-25-11-34-12-24-7-33-7-42-5-10-1-24-1z" fill="#FCFDFD"/>
<path transform="translate(1011,170)" d="m0 0 4 1 6 40 11 80 8 58 6 41 3 22 7 50 4 25 3 24 3 17v5h2l2-6 10-18 20-35 26-46 28-50 14-24 13-24 10-17 12-22 10-17 15-27 12-21 15-27 15-26 3-2 71-1h366l52 1-4 19-12 53-3 10-1 1h-134l-3 1-5 15-14 65-12 56-10 47-23 107-12 56-8 37-4 11-7 1h-81l-1-2 9-38 12-57 15-70 20-94 21-99 5-26 3-10h-130l-3 1-5 18-10 46-15 70-16 75-15 70-16 75-7 34-2 6-5 1h-25l-60-1 14-63 9-43 14-64 10-48 12-55 10-49 7-30 2-7-5 5-13 24-10 18-13 23-9 16-14 25-12 21-13 24-13 23-13 24-13 23-25 45-13 23-16 29-13 23-7 13-13 1h-16l-46-1-3-2-3-20-4-36-5-41-3-20-2-19-3-17-3-25-3-20-3-26-6-47-4-30-3-20-2-14-1-15-1-4-2 3-6 27-6 29-10 48-10 44-10 48-12 55-13 62-8 35-2 5-6 1h-24l-58-1 1-9 15-70 12-55 11-53 10-46 14-66 10-47 9-43 11-51 6-27 3-11z" fill="#0A0707"/>
<path transform="translate(582,161)" d="m0 0h33l25 3 23 5 18 6 24 11 13 8 19 14 20 20 10 13 11 18 10 21 6 17 5 20 5 36v15l-5 38-7 27-8 23-11 24-14 25-12 17-8 10-9 10-7 8-11 12-4 5-11 9-12 11-8 7-13 12-13 10-15 10-12 7-25 11-15 5-17 4-40 4-17 2h-45l-34-6-20-7-21-9-16-9-12-8-13-11-11-10-18-22-12-20-7-15-8-24-5-24-1-22v-24l2-22 6-28 7-24 11-26 12-23 12-19 12-16 12-14 38-38 7-8 9-10 7-7 14-11 14-10 18-10 21-9 24-7 26-4h37z" fill="#0A0707"/>
<path transform="translate(560,244)" d="m0 0h37l18 3 16 5 14 7 7 9 10 18 11 23 6 15 8 27 6 28 5 35v28l-3 10-11 19-12 17-10 13-11 12-10 10-8 7-11 9-25 15-16 8-30 10-17 4-16 2h-21l-26-5-18-6-10-6-7-9-12-21-10-21-9-24-6-21-2-8-3-15-4-23-1-12v-24l9-21 7-13 8-12 13-16 9-11 11-11 14-11 15-11 15-9 16-8 12-5 18-6 15-4z" fill="#FCD90B"/>
<path transform="translate(535,189)" d="m0 0h23l15 3 17 5 17 8 14 10 11 9 7 8 8 10 13 18 14 24 12 26 6 17 4 12 6 25 5 28 3 38-1 23-3 25-6 27-8 22-10 19-10 15-8 10-9 10-9 9-11 8-14 9-24 12-24 7-22 2h-14l-15-1-14-3-16-6-14-8-12-9-9-7-13-13-9-11-10-14-8-13-13-25-8-21-6-20-6-25-4-23-2-29v-24l2-27 3-20 6-21 6-16 9-19 6-10 10-13 9-10 12-12 12-9 19-11 14-7 24-8 15-3zm25 55-13 2-21 6-18 7-16 8-14 8-14 10-14 11-12 11-11 12-10 13-9 12-9 16-9 20-1 3v24l2 18 5 29 2 5 4 18 8 23 10 23 11 21 10 15 8 6 12 5 15 4 21 4h21l21-3 25-7 19-7 16-8 23-14 14-12 13-12 10-10 13-17 10-14 10-17 5-10 1-5v-28l-5-35-6-28-6-20-4-12-10-23-12-23-8-12-9-6-15-6-18-4-8-1z" fill="#0A0707"/>
<path transform="translate(538,174)" d="m0 0h25l22 4 16 6 19 10 10 7 15 13 13 13 9 11 16 24 14 27 10 25 8 25 6 25 5 33 1 10v44l-3 22-6 25-7 20-9 21-10 18-10 13-9 10-16 16-11 9-14 10-27 14-21 8-20 5-17 2h-22l-25-6-20-8-17-9-14-10-12-11-14-14-11-14-12-20-10-19-10-26-8-26-6-28-4-31-1-10v-37l5-39 8-32 9-21 8-15 13-18 12-14 17-17 16-12 18-11 21-10 24-8 15-3zm-3 15-21 3-20 6-19 8-22 13-9 7-10 9-12 12-14 19-11 21-8 21-4 14-4 18-2 19-1 17v24l2 29 6 33 6 23 9 26 10 21 12 21 12 17 13 15 12 12 11 8 14 9 9 5 17 6 11 2 15 1h14l22-2 27-8 19-10 15-9 10-8 8-7 10-10 13-17 9-15 8-15 8-22 6-27 3-25 1-23-3-38-7-37-6-23-8-22-13-28-13-22-14-19-7-9-4-5-8-7-11-9-13-8-16-7-17-5-12-2z" fill="#FAD70B"/>
<path transform="translate(348,802)" d="m0 0 13 1 31 4 25 2 32 1 1184 1-3 2-12 2-3 6h-1194l-5-3-49-8-16-5z" fill="#E6FEFE"/>
<path transform="translate(1954,634)" d="m0 0 1 3-2 1-1 4h-2l-2 6-4 6-2 1-2 5-8 10-9 10-5 5-2 3h-2l-2 4-8 8-7 8-10 9-14 10-13 10-20 14-28 17-16 9-25 10-30 10-26 7-21 5-23 7-5 3h-2v2h-49l1-5 2-2 12-2-10-1v-1l22-1 34-4 24-4 25-6 36-12 25-10 29-14 21-12 16-11 16-12 14-11 16-15 24-24 7-8 9-11 12-16z" fill="#F5FEFE"/>
<path transform="translate(284,783)" d="m0 0 6 1 27 9 28 7 5 1-1 2 14 5 28 5 25 4 5 3v1h-84l-2-11-5-4-10-5-24-10-12-6z" fill="#F5FEFE"/>
<path transform="translate(57,572)" d="m0 0 4 4 12 23 15 25 7 10 8 11 14 18 10 11 7 8 17 17 8 7 7 7 14 11 12 9v2h-3v-2l-4-1-8-4-12-8v-2h-3l-2-2-5-4v-2l-4-2-7-7-3-1-6-7-8-7-3-5-13-13-3-5-11-15-13-19-3-5-1-5h-2l-11-22-8-15-3-8z" fill="#F5FEFE"/>
<path transform="translate(379,292)" d="m0 0 1 4-6 18-6 26-2 19v15l1 4v15l3-3 2-9 3-32 4-11 2-12 1-2h2l1-6 1 4-4 18-2 19-1 17v24l1 16v13h-1l-1-18-4 1-2-2-3-11h-1l-1 13-1 24v9h-1l-4-33v-37l5-39 8-32z" fill="#DBB10E"/>
<path transform="translate(707,393)" d="m0 0h1l3 14 2 9v36l-2 18-3 14-3 12-2 4-1 8-3 5-4 10-3 4 1-5 7-21 6-29 2-19 1-23-2-28z" fill="#DBB10E"/>
<path transform="translate(723,383)" d="m0 0h1l3 24v44l-3 22-2 10h-1v-26l-2-9 3-18 1 2h2l-1-30-1-8z" fill="#DBB10E"/>
<path transform="translate(1049,413)" d="m0 0 2 4 2 10 3 18 8 52 2 23v8h-1l-4-23-3-25-4-26-5-33z" fill="#DBB10E"/>
<path transform="translate(530,572)" d="m0 0 2 1-1 2 3 1-16 2h-21l-11-2 4-2 31-1z" fill="#DBB10E"/>
<path transform="translate(1203,648)" d="m0 0 61 1 22 1v1l-41 1h-16l-22-1-4-1z" fill="#DBB10E"/>
<path transform="translate(1e3 643)" d="m0 0 2 4 2 1 46 1h28l-4 2-38 1h-15l-17-1-4-3z" fill="#DBB10E"/>
<path transform="translate(788,646)" d="m0 0 1 3h58l23 1v1l-54 1-24-1-5-1z" fill="#DBB10E"/>
<path transform="translate(408,564)" d="m0 0 5 5 6 8v2l4 2 1 4 4 2 14 14v2l4 2v2l4 2 2 3-4-2-10-9-15-15-11-14-4-6z" fill="#DBB10E"/>
<path transform="translate(538,174)" d="m0 0h25l7 1-1 2h-29l-3-2z" fill="#DBB10E"/>
<path transform="translate(390,380)" d="m0 0h1l1 21v24h-1l-2-18v-24z" fill="#DBB10E"/>
<path transform="translate(45,542)" d="m0 0 2 1 6 15-1 3-3-5-4-11z" fill="#F7FEFE"/>
<path transform="translate(956,292)" d="m0 0h1l1 5v15h-1l-3-18z" fill="#DBB10E"/>
</svg>
