<?xml version="1.0" encoding="UTF-8"?>
<svg version="1.1" viewBox="0 0 2048 940" width="1280" height="1280" xmlns="http://www.w3.org/2000/svg">
<path transform="translate(0)" d="m0 0h2048v940h-2048z" fill="#FEFEFE"/>
<path transform="translate(1227,327)" d="m0 0h58l39 5 30 7 30 10 24 11 17 9 16 10 19 14 15 13 11 11 18 22 12 17 13 23 9 20 8 22 8 31 5 28 2 26v322h-193l-1-1-1-86-7 3-19 14-13 10-16 12-38 28-20 15-17 12-2 1h-10l-23-4-36-8-28-8-25-10-25-12-20-12-14-10-11-9-20-18-9-10-13-16-12-18-12-21-11-25-9-27-6-26-5-32-2-31v-17l2-30 5-30 5-20 9-27 9-21 12-23 9-14 11-15 8-10 9-10 20-20 11-9 13-10 19-12 24-13 26-11 22-7 28-7 33-5z" fill="#FE6C00"/>
<path transform="translate(508,335)" d="m0 0h11l1 3v188l-35 4-29 5-22 6-19 7-17 8-14 9-11 9-10 9-10 13-8 13-8 16-7 21-4 18-2 19-1 25-1 220h-186l-7-1-1-34v-241l2-29 6-36 8-30 10-27 10-21 11-19 13-19 8-10 18-20 15-14 11-9 15-11 19-12 18-10 25-12 27-10 26-8 33-8 43-7 47-4z" fill="#FE6C00"/>
<path transform="translate(699,335)" d="m0 0h78l66 1v592h-190l-3-1-1-11v-580z" fill="#FE6C00"/>
<path transform="translate(721)" d="m0 0h49l23 7 22 11 14 10 12 11 11 13 11 18 6 14 4 13 4 24v12l-2 17-6 21-5 12-10 17-8 10-10 11-13 10-17 10-17 7-19 5-15 2h-22l-20-4-18-6-19-10-11-8-10-9-7-7-10-13-9-16-8-21-4-20v-29l4-19 7-19 8-15 12-16 14-14 17-12 23-11z" fill="#FE6C00"/>
<path transform="translate(1241,514)" d="m0 0h23l18 3 18 6 16 8 12 9 13 12 10 14 9 19 5 17 2 12 1 11v16l-3 20-5 16-6 14-7 11-8 10-11 11-13 9-16 8-15 5-16 3h-28l-18-3-19-7-14-8-12-9-8-7-9-11-7-11-6-12-7-23-2-14v-19l3-20 4-14 5-12 4-8 10-15 10-11 13-10 14-8 11-5 17-5z" fill="#FEFEFE"/>
</svg>
