<?xml version="1.0" encoding="UTF-8"?>
<svg version="1.1" viewBox="0 0 896 900" width="1280" height="1280" xmlns="http://www.w3.org/2000/svg">
<path transform="translate(0)" d="m0 0h896v900h-896z" fill="#EC0A45"/>
<path transform="translate(321,208)" d="m0 0h127l10 2 6 3 8 9 10 28 19 58 1 6h2l3-10 12-34 7-19 10-25 6-10 6-5 6-2 13-1 10 3 7 6 8 16 11 29 14 39 4 12 2-4 7-21 10-32 8-25 4-10 7-8 5-3 9-2h7l12 5 5 4 6 9 2 6v11l-6 21-15 44-15 43-12 36-7 18-6 10-7 6-8 2h-11l-9-3-6-5-6-11-6-14-23-57-5-12-2 2-25 65-8 20-6 8-5 4-5 2h-18l-37-9-64-16-45-11-19-5-2-1v-2l21-1 106-1-146-27-69-13-4-2v-2l199-1-44-7-28-4-54-8-166-25-29-4-7-2v-3l306-1-79-11-86-11-70-9-8-2v-3h244l-1-2-31-9-40-12-19-6-2-3z" fill="#FCFEFD"/>
<path transform="translate(212,512)" d="m0 0h13l3 7 6 19 7 23 3-8 12-35 4-6h9l4 5 12 36 2 7 2-3 11-36 3-8 4-1h10l1 2-10 31-12 37-2 2h-11l-3-4-9-25-6-17-1-2-12 36-6 12-4 1-8-2-4-10-13-41-5-17z" fill="#FCFEFD"/>
<path transform="translate(354,470)" d="m0 0h14v47l12-6 4-1h10l10 3 5 3 6 10 2 8v50l-7 1-6-1-1-1v-35l-1-14-2-7-10-4-9 1-6 4-4 5-2 9-1 41-1 1h-12l-1-1z" fill="#FCFEFD"/>
<path transform="translate(611,470)" d="m0 0h13l1 1v45l16-6h11l9 3 5 4 5 8 3 13v42l-1 4h-12l-1-1-1-48-3-8-4-3-11-1-7 3-5 6-3 8-1 42-1 2-5 1-7-1-1-1z" fill="#FDFEFE"/>
<path transform="translate(422,619)" d="m0 0h7l8 3 5 4 5 10v10l-5 13-8 9-9 4-3 1h-11l-8-4-7-8-1-3v-15l4-10 7-8 10-5z" fill="#EC0A45"/>
<path transform="translate(539,510)" d="m0 0h10l10 3 9 7 2 2-1 5-6 4-5-1-5-5-3-1h-12l-5 3-1 5 2 4 11 4 13 4 9 6 4 6v14l-6 10-10 5-4 1h-13l-10-3-11-7-1-7 6-5 5 1 7 6 7 2h7l8-4 1-8-4-4-22-7-8-4-4-7-1-11 3-8 8-7z" fill="#FCFEFD"/>
<path transform="translate(364,614)" d="m0 0 2 1v12l-4 32-4 18h-4l-1-4 6-43-1-2-9 16-12 21-7 12-3-1-7-21-7-25-1-4h-2l-2 21-4 26-2 4h-4l-1-4 9-56 7-2 3 5 6 18 7 25v2h2l2-5 15-27 10-16z" fill="#FCFEFD"/>
<path transform="translate(485,615)" d="m0 0 5 1 11 18 14 26 4 6 4-23 4-26 1-2h4v10l-6 44-2 8h-6l-4-5-8-15-12-22-5-8h-2l-5 38-3 12-5-1 3-23 4-28 3-9z" fill="#FBFEFD"/>
<path transform="translate(419,614)" d="m0 0h11l9 3 6 4 6 9 1 3v16l-4 11-4 6h-2l-2 4-7 5-10 3h-14l-9-3-5-5-5-8-2-13 3-12 5-9 5-6 10-6zm3 5-9 2-9 6-6 8-3 8v15l4 7 7 6 5 2h11l10-4 8-7 6-12 1-4v-10l-5-10-5-4-8-3z" fill="#F4FEFD"/>
<path transform="translate(397,513)" d="m0 0 9 1 5 5 5 10 1 5v50l-7 1-6-1-1-1v-35l-1-14-3-9-4-4v-5z" fill="#F1FEFD"/>
<path transform="translate(653,513)" d="m0 0 9 1 5 5 4 6 3 13v42l-1 4h-12l-1-1-1-48-3-10-5-5-1-4z" fill="#F1FEFD"/>
<path transform="translate(463,512)" d="m0 0h12l1 1v70l-1 1h-12z" fill="#F3FEFD"/>
<path transform="translate(565,615)" d="m0 0h30l6 1-1 4-1 1-30 1-3 20 28 1v4l-2 1h-27l-3 18v4l25 1 7 1 1 3-2 2h-37l-1-1 1-13 5-32 2-15z" fill="#FBFEFD"/>
<path transform="translate(307,512)" d="m0 0h10l1 2-10 31-8 25-5 2-3 4h-2v-22l10-33 3-8z" fill="#F2FEFD"/>
<path transform="translate(212,512)" d="m0 0h13l3 7 6 19 2 7 1 16v7l-2 2h-3l-7-18-5-16-2-12h-2l-4-9z" fill="#F1FEFD"/>
<path transform="translate(621,615)" d="m0 0 5 1 5 8 8 16v2l4-1 7-10 13-15 4-1 1 3-8 10-10 13-6 9-2 8-3 17-1 2h-4l1-16v-13l-4-9-10-20z" fill="#FDFEFE"/>
<path transform="translate(448,210)" d="m0 0h10l6 3 8 9 10 28 11 34v6l-2-1-5-16-4-12-3-8-3-11-5-5-2-5-8-7-13-11z" fill="#F2FEFD"/>
<path transform="translate(363,547)" d="m0 0h3l1 4v32h-11v-19l3-11 3-5z" fill="#F1FFFD"/>
<path transform="translate(528,615)" d="m0 0h4v10l-5 38h-2l-1 10-2 3-4-1v-2h3l-1-4 2-19 5-33z" fill="#F4FEFD"/>
<path transform="translate(618,551)" d="m0 0 3 1 1 5h2v24l-1 2h-10v-13l3-16z" fill="#F1FFFD"/>
<path transform="translate(670,525)" d="m0 0 2 3 2 10v42l-1 4h-12l-1-1-1-48-2-8 3 3 3 8v35l-1 9 10 1-1-7-1-1v-7l1-4v-30z" fill="#FDFEFE"/>
<path transform="translate(401,527)" d="m0 0 2 1 5 20-1 5-2 30 10-1v-7l-2-4 1-9 2-7h-2v-7h2v-14h1v50l-7 1-6-1-1-1v-35l-1-14z" fill="#FDFEFE"/>
<path transform="translate(561,549)" d="m0 0 6 1 4 6v14l-2 4-3 2-4-1-1-1-2-17z" fill="#F2FEFD"/>
<path transform="translate(574,212)" d="m0 0 7 2 6 8 8 19 9 24 6 17v5l-4-5-6-11-2-15-3-6-3-3-6-17-2-8-7-7z" fill="#F4FEFD"/>
<path transform="translate(467,479)" d="m0 0h7l4 5-1 9-3 2h-9l-4-4v-8l2-3z" fill="#F2FEFD"/>
<path transform="translate(356,626)" d="m0 0h2l-2 5-12 22-8 14h-3l-1-3 3-7 9-17 7-12z" fill="#F4FEFD"/>
<path transform="translate(355,471)" d="m0 0h12v18l-5 3-4-2-2-2z" fill="#F1FFFD"/>
<path transform="translate(265,513)" d="m0 0h5l3 4 3 8v7l-3 6-4-1-4-11-3-4 2-5 2-2z" fill="#F1FEFD"/>
<path transform="translate(613,471)" d="m0 0h11v20l-5 1-6-9-1-10z" fill="#F1FFFD"/>
<path transform="translate(664,615)" d="m0 0 4 1-2 5-10 12-11 15h-2l-1-5 7-11 9-10z" fill="#F4FEFD"/>
<path transform="translate(249,548)" d="m0 0 4 1v13l-6 9-5 6-3-1 5-12 2-6 2-9z" fill="#F1FFFD"/>
<path transform="translate(390,640)" d="m0 0 4 2 1 1 1 15 2 6-3 6-5-8-2-13z" fill="#FCFEFD"/>
<path transform="translate(621,615)" d="m0 0 5 1 5 8 6 12v5h-3l-4-4-8-16z" fill="#F4FEFD"/>
<path transform="translate(480,646)" d="m0 0h2v19l-3 12-5-1 3-23z" fill="#F3FEFD"/>
<path transform="translate(552,513)" d="m0 0 6 1 5 2 2 5-3 9-4-2v-3l-6-2-1-5z" fill="#F1FEFD"/>
<path transform="translate(512,656)" d="m0 0 3 4 4 6 2-4v11h-3l2 1v2l3-3 2-10h1l-1 12-1 2h-6l-4-5-6-12h2l1-3z" fill="#FCFEFD"/>
<path transform="translate(485,621)" d="m0 0 4 1 1 1 1-2 3 1 7 12v3h-2l-1 2h-2l-7-12-6 2 1-7z" fill="#F4FEFD"/>
<path transform="translate(300,653)" d="m0 0h2l2 4h1v10l-2 9-5 1-1-4z" fill="#F3FEFD"/>
<path transform="translate(477,243)" d="m0 0 3 1 13 40v6l-2-1-5-16-4-12-3-8-2-6z" fill="#F5FEFD"/>
<path transform="translate(545,357)" d="m0 0h1l-1 8-10 25-2 1v-8l3-3 1-7 4-9z" fill="#F4FEFD"/>
<path transform="translate(175,242)" d="m0 0h24l17 1-4 2h-9l-7-1v2h-13l-9-2z" fill="#F1FFFD"/>
<path transform="translate(687,213)" d="m0 0h5l5 4 6 9 2 6v11l-2 2-2-5-1-14-7-8v-2l-6-2z" fill="#F4FEFD"/>
<path transform="translate(639,654)" d="m0 0h1v18l-2 5h-4v-8z" fill="#F4FEFD"/>
<path transform="translate(356,662)" d="m0 0h2v2h2l-1 10-1 3h-4l-1-4 2-10z" fill="#F4FEFD"/>
<path transform="translate(303,640)" d="m0 0 1 2v7l3-2-1 14-4-5-1-9z" fill="#FDFEFE"/>
<path transform="translate(360,638)" d="m0 0h2v14h-3l-1-4v-9z" fill="#F3FEFD"/>
<path transform="translate(498,635)" d="m0 0 1 2 3-1 4 7-1 3h-3l-5-6z" fill="#FCFEFD"/>
<path transform="translate(415,615)" d="m0 0h4v2l-8 3-4 2h-3l-1 2-4 1 5-5 7-4z" fill="#FDFEFE"/>
<path transform="translate(467,479)" d="m0 0h7l1 2-10 1-1 9v2h-2l-1-2v-8l2-3z" fill="#FDFEFE"/>
<path transform="translate(504,651)" d="m0 0h5l3 3v5l-4 1-4-6z" fill="#F3FEFD"/>
<path transform="translate(559,654)" d="m0 0h3v7l-2 6-2-1v-10z" fill="#F1FFFD"/>
<path transform="translate(294,541)" d="m0 0h2l-1 9-3 7h-2l2-10z" fill="#FDFEFE"/>
<path transform="translate(425,671)" d="m0 0 3 1-5 3-13-1-2-2h14z" fill="#FDFEFE"/>
<path transform="translate(304,640)" d="m0 0h2l1 7-3 3-1-1v-7z" fill="#F1FFFD"/>
<path transform="translate(323,209)" d="m0 0h10l-1 3h-7z" fill="#F1FFFD"/>
</svg>
